<svg width="1468" height="351" viewBox="0 0 1468 351" fill="none" xmlns="http://www.w3.org/2000/svg">
<path d="M525.403 257C521.353 257 518.122 255.675 515.707 253.014C513.291 250.353 512.084 246.754 512.084 242.211C512.084 237.675 513.291 234.073 515.707 231.416C518.122 228.753 521.353 227.424 525.403 227.424C528.514 227.424 531.164 228.264 533.351 229.942C535.539 231.619 536.767 233.829 537.042 236.575H533.136C532.98 234.766 532.195 233.331 530.783 232.264C529.371 231.195 527.59 230.664 525.441 230.664C522.538 230.664 520.24 231.662 518.548 233.659C516.855 235.655 516.008 238.507 516.008 242.211C516.008 245.907 516.849 248.756 518.528 250.759C520.208 252.761 522.486 253.762 525.364 253.762C527.601 253.762 529.412 253.22 530.794 252.125C532.173 251.032 532.953 249.474 533.136 247.442H537.042C536.767 250.482 535.571 252.841 533.448 254.503C531.327 256.17 528.644 257 525.403 257Z" fill="#2D2C33"/>
<path d="M525.403 257C521.353 257 518.122 255.675 515.707 253.014C513.291 250.353 512.084 246.754 512.084 242.211C512.084 237.675 513.291 234.073 515.707 231.416C518.122 228.753 521.353 227.424 525.403 227.424C528.514 227.424 531.164 228.264 533.351 229.942C535.539 231.619 536.767 233.829 537.042 236.575H533.136C532.98 234.766 532.195 233.331 530.783 232.264C529.371 231.195 527.59 230.664 525.441 230.664C522.538 230.664 520.24 231.662 518.548 233.659C516.855 235.655 516.008 238.507 516.008 242.211C516.008 245.907 516.849 248.756 518.528 250.759C520.208 252.761 522.486 253.762 525.364 253.762C527.601 253.762 529.412 253.22 530.794 252.125C532.173 251.032 532.953 249.474 533.136 247.442H537.042C536.767 250.482 535.571 252.841 533.448 254.503C531.327 256.17 528.644 257 525.403 257Z" stroke="#2D2C33" stroke-width="1.15907" stroke-miterlimit="10"/>
<path d="M562.497 244.807L557.458 231.541L552.655 244.807H562.497ZM571.208 256.516H566.932L563.612 247.812H551.62L548.455 256.516H544.453L555.449 227.911H559.53L571.208 256.516Z" fill="#2D2C33"/>
<path d="M562.497 244.807L557.458 231.541L552.655 244.807H562.497ZM571.208 256.516H566.932L563.612 247.812H551.62L548.455 256.516H544.453L555.449 227.911H559.53L571.208 256.516Z" stroke="#2D2C33" stroke-width="1.15907" stroke-miterlimit="10"/>
<path d="M583.561 240.886H592.015C594.371 240.886 596.081 240.516 597.141 239.774C598.203 239.033 598.734 237.751 598.734 235.932C598.734 232.679 596.689 231.056 592.601 231.056H583.561V240.886ZM603.635 256.516H599.534L596.84 248.887C596.356 247.533 595.556 246.425 594.437 245.568C593.316 244.709 592.029 244.281 590.571 244.281H583.561V256.516H579.771V227.911H592.445C594.659 227.911 596.468 228.124 597.875 228.555C599.281 228.982 600.426 229.888 601.311 231.268C602.197 232.648 602.64 234.199 602.64 235.932C602.64 237.907 602.066 239.56 600.921 240.886C599.775 242.211 598.206 243.079 596.215 243.48V243.558C598.206 244.196 599.723 245.919 600.765 248.73L603.635 256.516Z" fill="#2D2C33"/>
<path d="M583.561 240.886H592.015C594.371 240.886 596.081 240.516 597.141 239.774C598.203 239.033 598.734 237.751 598.734 235.932C598.734 232.679 596.689 231.056 592.601 231.056H583.561V240.886ZM603.635 256.516H599.534L596.84 248.887C596.356 247.533 595.556 246.425 594.437 245.568C593.316 244.709 592.029 244.281 590.571 244.281H583.561V256.516H579.771V227.911H592.445C594.659 227.911 596.468 228.124 597.875 228.555C599.281 228.982 600.426 229.888 601.311 231.268C602.197 232.648 602.64 234.199 602.64 235.932C602.64 237.907 602.066 239.56 600.921 240.886C599.775 242.211 598.206 243.079 596.215 243.48V243.558C598.206 244.196 599.723 245.919 600.765 248.73L603.635 256.516Z" stroke="#2D2C33" stroke-width="1.15907" stroke-miterlimit="10"/>
<path d="M626.574 257C622.459 257 619.124 255.656 616.565 252.962C614.007 250.271 612.729 246.688 612.729 242.211C612.729 237.723 613.989 234.137 616.515 231.451C619.042 228.768 622.355 227.424 626.457 227.424C629.907 227.424 632.774 228.252 635.06 229.911C637.345 231.567 638.623 233.792 638.896 236.575H634.971C634.815 234.729 633.981 233.282 632.472 232.231C630.96 231.185 628.969 230.664 626.495 230.664C623.54 230.664 621.16 231.671 619.358 233.686C617.554 235.704 616.652 238.547 616.652 242.211C616.652 245.869 617.564 248.707 619.386 250.729C621.209 252.752 623.592 253.762 626.535 253.762C630.662 253.762 633.727 252.404 635.732 249.685V245.337H628.174V241.921H639.405V256.516H636.728L635.732 253.512C633.793 255.841 630.741 257 626.574 257Z" fill="#2D2C33"/>
<path d="M626.574 257C622.459 257 619.124 255.656 616.565 252.962C614.007 250.271 612.729 246.688 612.729 242.211C612.729 237.723 613.989 234.137 616.515 231.451C619.042 228.768 622.355 227.424 626.457 227.424C629.907 227.424 632.774 228.252 635.06 229.911C637.345 231.567 638.623 233.792 638.896 236.575H634.971C634.815 234.729 633.981 233.282 632.472 232.231C630.96 231.185 628.969 230.664 626.495 230.664C623.54 230.664 621.16 231.671 619.358 233.686C617.554 235.704 616.652 238.547 616.652 242.211C616.652 245.869 617.564 248.707 619.386 250.729C621.209 252.752 623.592 253.762 626.535 253.762C630.662 253.762 633.727 252.404 635.732 249.685V245.337H628.174V241.921H639.405V256.516H636.728L635.732 253.512C633.793 255.841 630.741 257 626.574 257Z" stroke="#2D2C33" stroke-width="1.15907" stroke-miterlimit="10"/>
<path d="M665.368 244.807L660.328 231.541L655.525 244.807H665.368ZM674.077 256.516H669.802L666.482 247.812H654.49L651.326 256.516H647.321L658.317 227.911H662.398L674.077 256.516Z" fill="#2D2C33"/>
<path d="M665.368 244.807L660.328 231.541L655.525 244.807H665.368ZM674.077 256.516H669.802L666.482 247.812H654.49L651.326 256.516H647.321L658.317 227.911H662.398L674.077 256.516Z" stroke="#2D2C33" stroke-width="1.15907" stroke-miterlimit="10"/>
<path d="M725.576 256.516H721.983V232.184L713.82 256.516H710.422L702.259 232.184V256.516H698.666V227.911H704.349L712.102 251.753L719.893 227.911H725.576V256.516Z" fill="#2D2C33"/>
<path d="M725.576 256.516H721.983V232.184L713.82 256.516H710.422L702.259 232.184V256.516H698.666V227.911H704.349L712.102 251.753L719.893 227.911H725.576V256.516Z" stroke="#2D2C33" stroke-width="1.15907" stroke-miterlimit="10"/>
<path d="M752.184 244.807L747.146 231.541L742.341 244.807H752.184ZM760.895 256.516H756.618L753.298 247.812H741.308L738.143 256.516H734.139L745.135 227.911H749.217L760.895 256.516Z" fill="#2D2C33"/>
<path d="M752.184 244.807L747.146 231.541L742.341 244.807H752.184ZM760.895 256.516H756.618L753.298 247.812H741.308L738.143 256.516H734.139L745.135 227.911H749.217L760.895 256.516Z" stroke="#2D2C33" stroke-width="1.15907" stroke-miterlimit="10"/>
<path d="M773.246 240.886H781.702C784.058 240.886 785.768 240.516 786.83 239.774C787.889 239.033 788.419 237.751 788.419 235.932C788.419 232.679 786.377 231.056 782.288 231.056H773.246V240.886ZM793.323 256.516H789.221L786.526 248.887C786.045 247.533 785.243 246.425 784.125 245.568C783.005 244.709 781.715 244.281 780.257 244.281H773.246V256.516H769.458V227.911H782.132C784.345 227.911 786.155 228.124 787.561 228.555C788.968 228.982 790.112 229.888 791 231.268C791.883 232.648 792.326 234.199 792.326 235.932C792.326 237.907 791.752 239.56 790.608 240.886C789.461 242.211 787.893 243.079 785.902 243.48V243.558C787.893 244.196 789.41 245.919 790.451 248.73L793.323 256.516Z" fill="#2D2C33"/>
<path d="M773.246 240.886H781.702C784.058 240.886 785.768 240.516 786.83 239.774C787.889 239.033 788.419 237.751 788.419 235.932C788.419 232.679 786.377 231.056 782.288 231.056H773.246V240.886ZM793.323 256.516H789.221L786.526 248.887C786.045 247.533 785.243 246.425 784.125 245.568C783.005 244.709 781.715 244.281 780.257 244.281H773.246V256.516H769.458V227.911H782.132C784.345 227.911 786.155 228.124 787.561 228.555C788.968 228.982 790.112 229.888 791 231.268C791.883 232.648 792.326 234.199 792.326 235.932C792.326 237.907 791.752 239.56 790.608 240.886C789.461 242.211 787.893 243.079 785.902 243.48V243.558C787.893 244.196 789.41 245.919 790.451 248.73L793.323 256.516Z" stroke="#2D2C33" stroke-width="1.15907" stroke-miterlimit="10"/>
<path d="M808.017 256.516H804.209V227.911H808.017V256.516Z" fill="#2D2C33"/>
<path d="M808.017 256.516H804.209V227.911H808.017V256.516Z" stroke="#2D2C33" stroke-width="1.15907" stroke-miterlimit="10"/>
<path d="M840.602 231.306H831.131V256.516H827.323V231.306H817.929V227.911H840.602V231.306Z" fill="#2D2C33"/>
<path d="M840.602 231.306H831.131V256.516H827.323V231.306H817.929V227.911H840.602V231.306Z" stroke="#2D2C33" stroke-width="1.15907" stroke-miterlimit="10"/>
<path d="M854.362 256.516H850.553V227.911H854.362V256.516Z" fill="#2D2C33"/>
<path d="M854.362 256.516H850.553V227.911H854.362V256.516Z" stroke="#2D2C33" stroke-width="1.15907" stroke-miterlimit="10"/>
<path d="M893.506 256.516H889.914V232.184L881.75 256.516H878.352L870.189 232.184V256.516H866.596V227.911H872.279L880.032 251.753L887.823 227.911H893.506V256.516Z" fill="#2D2C33"/>
<path d="M893.506 256.516H889.914V232.184L881.75 256.516H878.352L870.189 232.184V256.516H866.596V227.911H872.279L880.032 251.753L887.823 227.911H893.506V256.516Z" stroke="#2D2C33" stroke-width="1.15907" stroke-miterlimit="10"/>
<path d="M920.115 244.807L915.076 231.541L910.273 244.807H920.115ZM928.826 256.516H924.548L921.228 247.812H909.238L906.074 256.516H902.07L913.066 227.911H917.146L928.826 256.516Z" fill="#2D2C33"/>
<path d="M920.115 244.807L915.076 231.541L910.273 244.807H920.115ZM928.826 256.516H924.548L921.228 247.812H909.238L906.074 256.516H902.07L913.066 227.911H917.146L928.826 256.516Z" stroke="#2D2C33" stroke-width="1.15907" stroke-miterlimit="10"/>
<path d="M968.215 244.807L963.176 231.541L958.372 244.807H968.215ZM976.925 256.516H972.648L969.327 247.812H957.337L954.173 256.516H950.169L961.165 227.911H965.245L976.925 256.516Z" fill="#2D2C33"/>
<path d="M968.215 244.807L963.176 231.541L958.372 244.807H968.215ZM976.925 256.516H972.648L969.327 247.812H957.337L954.173 256.516H950.169L961.165 227.911H965.245L976.925 256.516Z" stroke="#2D2C33" stroke-width="1.15907" stroke-miterlimit="10"/>
<path d="M1006.83 256.516H985.488V227.911H1006.17V231.306H989.277V240.047H1005.08V243.444H989.277V253.12H1006.83V256.516Z" fill="#2D2C33"/>
<path d="M1006.83 256.516H985.488V227.911H1006.17V231.306H989.277V240.047H1005.08V243.444H989.277V253.12H1006.83V256.516Z" stroke="#2D2C33" stroke-width="1.15907" stroke-miterlimit="10"/>
<path d="M1021.35 240.886H1029.81C1032.17 240.886 1033.87 240.516 1034.94 239.774C1036 239.033 1036.53 237.751 1036.53 235.932C1036.53 232.679 1034.48 231.056 1030.39 231.056H1021.35V240.886ZM1041.43 256.516H1037.33L1034.63 248.887C1034.15 247.533 1033.35 246.425 1032.23 245.568C1031.11 244.709 1029.82 244.281 1028.36 244.281H1021.35V256.516H1017.56V227.911H1030.24C1032.45 227.911 1034.26 228.124 1035.67 228.555C1037.07 228.982 1038.22 229.888 1039.11 231.268C1039.99 232.648 1040.43 234.199 1040.43 235.932C1040.43 237.907 1039.86 239.56 1038.71 240.886C1037.57 242.211 1036 243.079 1034.01 243.48V243.558C1036 244.196 1037.52 245.919 1038.56 248.73L1041.43 256.516Z" fill="#2D2C33"/>
<path d="M1021.35 240.886H1029.81C1032.17 240.886 1033.87 240.516 1034.94 239.774C1036 239.033 1036.53 237.751 1036.53 235.932C1036.53 232.679 1034.48 231.056 1030.39 231.056H1021.35V240.886ZM1041.43 256.516H1037.33L1034.63 248.887C1034.15 247.533 1033.35 246.425 1032.23 245.568C1031.11 244.709 1029.82 244.281 1028.36 244.281H1021.35V256.516H1017.56V227.911H1030.24C1032.45 227.911 1034.26 228.124 1035.67 228.555C1037.07 228.982 1038.22 229.888 1039.11 231.268C1039.99 232.648 1040.43 234.199 1040.43 235.932C1040.43 237.907 1039.86 239.56 1038.71 240.886C1037.57 242.211 1036 243.079 1034.01 243.48V243.558C1036 244.196 1037.52 245.919 1038.56 248.73L1041.43 256.516Z" stroke="#2D2C33" stroke-width="1.15907" stroke-miterlimit="10"/>
<path d="M1073.19 256.516H1051.85V227.911H1072.53V231.306H1055.64V240.047H1071.44V243.444H1055.64V253.12H1073.19V256.516Z" fill="#2D2C33"/>
<path d="M1073.19 256.516H1051.85V227.911H1072.53V231.306H1055.64V240.047H1071.44V243.444H1055.64V253.12H1073.19V256.516Z" stroke="#2D2C33" stroke-width="1.15907" stroke-miterlimit="10"/>
<path d="M1098.73 244.807L1093.69 231.541L1088.89 244.807H1098.73ZM1107.44 256.516H1103.16L1099.84 247.812H1087.85L1084.69 256.516H1080.68L1091.68 227.911H1095.76L1107.44 256.516Z" fill="#2D2C33"/>
<path d="M1098.73 244.807L1093.69 231.541L1088.89 244.807H1098.73ZM1107.44 256.516H1103.16L1099.84 247.812H1087.85L1084.69 256.516H1080.68L1091.68 227.911H1095.76L1107.44 256.516Z" stroke="#2D2C33" stroke-width="1.15907" stroke-miterlimit="10"/>
<path d="M1155.3 227.911L1144.05 244.4V256.516H1140.27V244.4L1129.02 227.911H1133.63L1142.18 241.083L1150.7 227.911H1155.3Z" fill="#2D2C33"/>
<path d="M1155.3 227.911L1144.05 244.4V256.516H1140.27V244.4L1129.02 227.911H1133.63L1142.18 241.083L1150.7 227.911H1155.3Z" stroke="#2D2C33" stroke-width="1.15907" stroke-miterlimit="10"/>
<path d="M1200.47 231.306H1191V256.516H1187.19V231.306H1177.8V227.911H1200.47V231.306Z" fill="#2D2C33"/>
<path d="M1200.47 231.306H1191V256.516H1187.19V231.306H1177.8V227.911H1200.47V231.306Z" stroke="#2D2C33" stroke-width="1.15907" stroke-miterlimit="10"/>
<path d="M1231.3 256.516H1209.95V227.911H1230.64V231.306H1213.74V240.047H1229.54V243.444H1213.74V253.12H1231.3V256.516Z" fill="#2D2C33"/>
<path d="M1231.3 256.516H1209.95V227.911H1230.64V231.306H1213.74V240.047H1229.54V243.444H1213.74V253.12H1231.3V256.516Z" stroke="#2D2C33" stroke-width="1.15907" stroke-miterlimit="10"/>
<path d="M1245.82 240.886H1254.28C1256.63 240.886 1258.34 240.516 1259.4 239.774C1260.46 239.033 1260.99 237.751 1260.99 235.932C1260.99 232.679 1258.95 231.056 1254.86 231.056H1245.82V240.886ZM1265.9 256.516H1261.8L1259.1 248.887C1258.62 247.533 1257.82 246.425 1256.7 245.568C1255.58 244.709 1254.29 244.281 1252.83 244.281H1245.82V256.516H1242.03V227.911H1254.71C1256.92 227.911 1258.73 228.124 1260.14 228.555C1261.54 228.982 1262.69 229.888 1263.57 231.268C1264.46 232.648 1264.9 234.199 1264.9 235.932C1264.9 237.907 1264.33 239.56 1263.18 240.886C1262.04 242.211 1260.47 243.079 1258.48 243.48V243.558C1260.47 244.196 1261.98 245.919 1263.03 248.73L1265.9 256.516Z" fill="#2D2C33"/>
<path d="M1245.82 240.886H1254.28C1256.63 240.886 1258.34 240.516 1259.4 239.774C1260.46 239.033 1260.99 237.751 1260.99 235.932C1260.99 232.679 1258.95 231.056 1254.86 231.056H1245.82V240.886ZM1265.9 256.516H1261.8L1259.1 248.887C1258.62 247.533 1257.82 246.425 1256.7 245.568C1255.58 244.709 1254.29 244.281 1252.83 244.281H1245.82V256.516H1242.03V227.911H1254.71C1256.92 227.911 1258.73 228.124 1260.14 228.555C1261.54 228.982 1262.69 229.888 1263.57 231.268C1264.46 232.648 1264.9 234.199 1264.9 235.932C1264.9 237.907 1264.33 239.56 1263.18 240.886C1262.04 242.211 1260.47 243.079 1258.48 243.48V243.558C1260.47 244.196 1261.98 245.919 1263.03 248.73L1265.9 256.516Z" stroke="#2D2C33" stroke-width="1.15907" stroke-miterlimit="10"/>
<path d="M1280.11 240.886H1288.56C1290.92 240.886 1292.62 240.516 1293.69 239.774C1294.75 239.033 1295.28 237.751 1295.28 235.932C1295.28 232.679 1293.24 231.056 1289.15 231.056H1280.11V240.886ZM1300.18 256.516H1296.08L1293.39 248.887C1292.9 247.533 1292.1 246.425 1290.98 245.568C1289.86 244.709 1288.57 244.281 1287.12 244.281H1280.11V256.516H1276.32V227.911H1288.99C1291.21 227.911 1293.02 228.124 1294.42 228.555C1295.82 228.982 1296.97 229.888 1297.86 231.268C1298.74 232.648 1299.18 234.199 1299.18 235.932C1299.18 237.907 1298.61 239.56 1297.47 240.886C1296.32 242.211 1294.75 243.079 1292.76 243.48V243.558C1294.75 244.196 1296.27 245.919 1297.31 248.73L1300.18 256.516Z" fill="#2D2C33"/>
<path d="M1280.11 240.886H1288.56C1290.92 240.886 1292.62 240.516 1293.69 239.774C1294.75 239.033 1295.28 237.751 1295.28 235.932C1295.28 232.679 1293.24 231.056 1289.15 231.056H1280.11V240.886ZM1300.18 256.516H1296.08L1293.39 248.887C1292.9 247.533 1292.1 246.425 1290.98 245.568C1289.86 244.709 1288.57 244.281 1287.12 244.281H1280.11V256.516H1276.32V227.911H1288.99C1291.21 227.911 1293.02 228.124 1294.42 228.555C1295.82 228.982 1296.97 229.888 1297.86 231.268C1298.74 232.648 1299.18 234.199 1299.18 235.932C1299.18 237.907 1298.61 239.56 1297.47 240.886C1296.32 242.211 1294.75 243.079 1292.76 243.48V243.558C1294.75 244.196 1296.27 245.919 1297.31 248.73L1300.18 256.516Z" stroke="#2D2C33" stroke-width="1.15907" stroke-miterlimit="10"/>
<path d="M1331.94 256.516H1310.6V227.911H1331.28V231.306H1314.39V240.047H1330.19V243.444H1314.39V253.12H1331.94V256.516Z" fill="#2D2C33"/>
<path d="M1331.94 256.516H1310.6V227.911H1331.28V231.306H1314.39V240.047H1330.19V243.444H1314.39V253.12H1331.94V256.516Z" stroke="#2D2C33" stroke-width="1.15907" stroke-miterlimit="10"/>
<path d="M1353.47 257C1349.44 257 1346.42 256.099 1344.42 254.292C1342.42 252.481 1341.37 250.161 1341.27 247.324H1344.92C1345.12 249.457 1346.01 251.034 1347.59 252.058C1349.17 253.078 1351.08 253.589 1353.32 253.589C1355.44 253.589 1357.15 253.149 1358.45 252.282C1359.74 251.411 1360.39 250.225 1360.39 248.73C1360.39 247.157 1359.72 246.01 1358.38 245.294C1357.03 244.582 1354.73 243.877 1351.45 243.179C1348.18 242.486 1345.83 241.517 1344.4 240.281C1342.98 239.045 1342.27 237.4 1342.27 235.345C1342.27 233.027 1343.19 231.131 1345.05 229.648C1346.9 228.167 1349.37 227.424 1352.44 227.424C1355.67 227.424 1358.27 228.173 1360.25 229.665C1362.23 231.161 1363.28 233.276 1363.4 236.007H1359.7C1359.33 232.551 1356.96 230.818 1352.6 230.818C1350.49 230.818 1348.85 231.216 1347.69 232.007C1346.53 232.803 1345.95 233.856 1345.95 235.171C1345.95 236.368 1346.42 237.264 1347.35 237.864C1348.28 238.462 1350.02 239.041 1352.57 239.6C1355.11 240.158 1357.13 240.713 1358.63 241.256C1360.13 241.805 1361.41 242.652 1362.48 243.805C1363.54 244.954 1364.08 246.499 1364.08 248.438C1364.08 250.895 1363.1 252.938 1361.14 254.565C1359.18 256.187 1356.62 257 1353.47 257Z" fill="#2D2C33"/>
<path d="M1353.47 257C1349.44 257 1346.42 256.099 1344.42 254.292C1342.42 252.481 1341.37 250.161 1341.27 247.324H1344.92C1345.12 249.457 1346.01 251.034 1347.59 252.058C1349.17 253.078 1351.08 253.589 1353.32 253.589C1355.44 253.589 1357.15 253.149 1358.45 252.282C1359.74 251.411 1360.39 250.225 1360.39 248.73C1360.39 247.157 1359.72 246.01 1358.38 245.294C1357.03 244.582 1354.73 243.877 1351.45 243.179C1348.18 242.486 1345.83 241.517 1344.4 240.281C1342.98 239.045 1342.27 237.4 1342.27 235.345C1342.27 233.027 1343.19 231.131 1345.05 229.648C1346.9 228.167 1349.37 227.424 1352.44 227.424C1355.67 227.424 1358.27 228.173 1360.25 229.665C1362.23 231.161 1363.28 233.276 1363.4 236.007H1359.7C1359.33 232.551 1356.96 230.818 1352.6 230.818C1350.49 230.818 1348.85 231.216 1347.69 232.007C1346.53 232.803 1345.95 233.856 1345.95 235.171C1345.95 236.368 1346.42 237.264 1347.35 237.864C1348.28 238.462 1350.02 239.041 1352.57 239.6C1355.11 240.158 1357.13 240.713 1358.63 241.256C1360.13 241.805 1361.41 242.652 1362.48 243.805C1363.54 244.954 1364.08 246.499 1364.08 248.438C1364.08 250.895 1363.1 252.938 1361.14 254.565C1359.18 256.187 1356.62 257 1353.47 257Z" stroke="#2D2C33" stroke-width="1.15907" stroke-miterlimit="10"/>
<path d="M1395.1 231.306H1385.63V256.516H1381.82V231.306H1372.43V227.911H1395.1V231.306Z" fill="#2D2C33"/>
<path d="M1395.1 231.306H1385.63V256.516H1381.82V231.306H1372.43V227.911H1395.1V231.306Z" stroke="#2D2C33" stroke-width="1.15907" stroke-miterlimit="10"/>
<path d="M1408.37 240.886H1416.83C1419.19 240.886 1420.9 240.516 1421.96 239.774C1423.01 239.033 1423.55 237.751 1423.55 235.932C1423.55 232.679 1421.5 231.056 1417.42 231.056H1408.37V240.886ZM1428.45 256.516H1424.35L1421.66 248.887C1421.17 247.533 1420.37 246.425 1419.25 245.568C1418.13 244.709 1416.84 244.281 1415.38 244.281H1408.37V256.516H1404.58V227.911H1417.26C1419.47 227.911 1421.28 228.124 1422.69 228.555C1424.09 228.982 1425.24 229.888 1426.13 231.268C1427.01 232.648 1427.46 234.199 1427.46 235.932C1427.46 237.907 1426.88 239.56 1425.73 240.886C1424.59 242.211 1423.02 243.079 1421.03 243.48V243.558C1423.02 244.196 1424.54 245.919 1425.58 248.73L1428.45 256.516Z" fill="#2D2C33"/>
<path d="M1408.37 240.886H1416.83C1419.19 240.886 1420.9 240.516 1421.96 239.774C1423.01 239.033 1423.55 237.751 1423.55 235.932C1423.55 232.679 1421.5 231.056 1417.42 231.056H1408.37V240.886ZM1428.45 256.516H1424.35L1421.66 248.887C1421.17 247.533 1420.37 246.425 1419.25 245.568C1418.13 244.709 1416.84 244.281 1415.38 244.281H1408.37V256.516H1404.58V227.911H1417.26C1419.47 227.911 1421.28 228.124 1422.69 228.555C1424.09 228.982 1425.24 229.888 1426.13 231.268C1427.01 232.648 1427.46 234.199 1427.46 235.932C1427.46 237.907 1426.88 239.56 1425.73 240.886C1424.59 242.211 1423.02 243.079 1421.03 243.48V243.558C1423.02 244.196 1424.54 245.919 1425.58 248.73L1428.45 256.516Z" stroke="#2D2C33" stroke-width="1.15907" stroke-miterlimit="10"/>
<path d="M1460.21 256.516H1438.87V227.911H1459.55V231.306H1442.65V240.047H1458.45V243.444H1442.65V253.12H1460.21V256.516Z" fill="#2D2C33"/>
<path d="M1460.21 256.516H1438.87V227.911H1459.55V231.306H1442.65V240.047H1458.45V243.444H1442.65V253.12H1460.21V256.516Z" stroke="#2D2C33" stroke-width="1.15907" stroke-miterlimit="10"/>
<path d="M559.454 112.05C550.569 112.05 542.816 115.229 536.191 121.584C529.566 127.941 526.254 135.668 526.254 144.767C526.254 153.946 529.566 161.714 536.191 168.066C542.854 174.383 550.609 177.543 559.454 177.543C568.225 177.543 575.978 174.383 582.716 168.066C589.341 161.714 592.655 153.946 592.655 144.767C592.655 135.668 589.341 127.941 582.716 121.584C575.978 115.229 568.225 112.05 559.454 112.05ZM559.454 94C574.021 94 586.387 98.9633 596.55 108.891C606.825 118.819 611.964 130.781 611.964 144.767C611.964 158.799 606.825 170.774 596.55 180.702C586.387 190.555 574.021 195.48 559.454 195.48C544.849 195.48 532.483 190.555 522.358 180.702C512.119 170.774 507 158.799 507 144.767C507 130.817 512.119 118.859 522.358 108.891C532.483 98.9633 544.849 94 559.454 94Z" fill="#44434C"/>
<path d="M559.454 112.05C550.569 112.05 542.816 115.229 536.191 121.584C529.566 127.941 526.254 135.668 526.254 144.767C526.254 153.946 529.566 161.714 536.191 168.066C542.854 174.383 550.609 177.543 559.454 177.543C568.225 177.543 575.978 174.383 582.716 168.066C589.341 161.714 592.655 153.946 592.655 144.767C592.655 135.668 589.341 127.941 582.716 121.584C575.978 115.229 568.225 112.05 559.454 112.05ZM559.454 94C574.021 94 586.387 98.9633 596.55 108.891C606.825 118.819 611.964 130.781 611.964 144.767C611.964 158.799 606.825 170.774 596.55 180.702C586.387 190.555 574.021 195.48 559.454 195.48C544.849 195.48 532.483 190.555 522.358 180.702C512.119 170.774 507 158.799 507 144.767C507 130.817 512.119 118.859 522.358 108.891C532.483 98.9633 544.849 94 559.454 94Z" stroke="#44434C" stroke-width="0.713477" stroke-miterlimit="10"/>
<path d="M667.185 133.881C665.829 133.657 664.512 133.544 663.232 133.544C658.038 133.544 653.313 135.27 649.059 138.732C643.753 143.132 641.098 148.736 641.098 155.542C641.098 164.381 645.086 170.871 653.071 175.005C656.531 176.883 660.051 177.824 663.626 177.824C667.882 177.824 672.097 176.413 676.276 173.595C677.253 172.915 678.213 172.109 679.155 171.166L679.211 171.112C679.776 170.549 680.434 170.267 681.187 170.267H681.583C682.523 170.379 683.239 170.848 683.729 171.677L690.279 182.734C690.578 183.295 690.729 183.823 690.729 184.311C690.729 185.101 690.334 185.815 689.544 186.457C689.205 186.756 688.697 187.169 688.02 187.697C686.74 188.636 685.441 189.445 684.123 190.123C677.725 193.693 670.911 195.48 663.684 195.48C662.102 195.48 660.277 195.386 658.207 195.198C648.91 194.109 640.93 190.327 634.266 183.86C626.173 176.076 622.127 166.691 622.127 155.712L622.183 155.656V155.542C622.183 144.525 626.21 135.122 634.266 127.34C640.514 121.247 648.024 117.524 656.797 116.168C659.354 115.795 661.669 115.606 663.741 115.606C667.09 115.606 670.44 116 673.79 116.789C676.351 117.427 678.853 118.313 681.3 119.438C682.843 120.194 684.425 121.135 686.045 122.26C686.832 122.824 687.229 123.598 687.229 124.573V136.25C687.229 138.168 686.27 139.127 684.35 139.127H672.097C670.177 139.127 669.218 138.168 669.218 136.25V134.279L667.185 133.881Z" fill="#44434C"/>
<path d="M667.185 133.881C665.829 133.657 664.512 133.544 663.232 133.544C658.038 133.544 653.313 135.27 649.059 138.732C643.753 143.132 641.098 148.736 641.098 155.542C641.098 164.381 645.086 170.871 653.071 175.005C656.531 176.883 660.051 177.824 663.626 177.824C667.882 177.824 672.097 176.413 676.276 173.595C677.253 172.915 678.213 172.109 679.155 171.166L679.211 171.112C679.776 170.549 680.434 170.267 681.187 170.267H681.583C682.523 170.379 683.239 170.848 683.729 171.677L690.279 182.734C690.578 183.295 690.729 183.823 690.729 184.311C690.729 185.101 690.334 185.815 689.544 186.457C689.205 186.756 688.697 187.169 688.02 187.697C686.74 188.636 685.441 189.445 684.123 190.123C677.725 193.693 670.911 195.48 663.684 195.48C662.102 195.48 660.277 195.386 658.207 195.198C648.91 194.109 640.93 190.327 634.266 183.86C626.173 176.076 622.127 166.691 622.127 155.712L622.183 155.656V155.542C622.183 144.525 626.21 135.122 634.266 127.34C640.514 121.247 648.024 117.524 656.797 116.168C659.354 115.795 661.669 115.606 663.741 115.606C667.09 115.606 670.44 116 673.79 116.789C676.351 117.427 678.853 118.313 681.3 119.438C682.843 120.194 684.425 121.135 686.045 122.26C686.832 122.824 687.229 123.598 687.229 124.573V136.25C687.229 138.168 686.27 139.127 684.35 139.127H672.097C670.177 139.127 669.218 138.168 669.218 136.25V134.279L667.185 133.881Z" stroke="#44434C" stroke-width="0.713477" stroke-miterlimit="10"/>
<path d="M722.408 147.025H757.246C756.191 142.773 754.403 139.56 751.881 137.38C748.833 134.861 744.577 133.599 739.12 133.599C735.055 133.599 731.592 134.729 728.731 136.985C725.719 139.351 723.611 142.701 722.408 147.025ZM739.344 115.606C744.464 115.606 749.547 116.659 754.591 118.761C759.521 120.87 763.738 124.029 767.238 128.241C770.475 132.339 772.864 137.307 774.41 143.132C775.35 146.706 775.82 150.694 775.82 155.089C775.82 156.895 775.727 159.04 775.538 161.522C775.313 163.253 774.354 164.117 772.659 164.117H722.408C724.1 168.178 726.811 171.433 730.538 173.875C734.3 176.395 738.423 177.655 742.903 177.655C749.188 177.655 754.459 175.512 758.714 171.225C759.24 170.662 759.898 170.379 760.688 170.379H761.084C762.023 170.491 762.741 170.961 763.229 171.789L769.779 182.846C770.081 183.411 770.231 183.935 770.231 184.423C770.231 185.215 769.837 185.928 769.044 186.566C761.553 192.51 752.84 195.48 742.903 195.48C736.993 195.48 731.497 194.391 726.416 192.21C721.221 190.027 716.779 187 713.09 183.128C709.44 179.514 706.654 175.379 704.734 170.717C702.701 166.055 701.686 160.998 701.686 155.542C701.686 146.367 704.47 138.092 710.042 130.722C713.466 126.174 717.683 122.527 722.688 119.779C727.733 116.996 733.286 115.606 739.344 115.606Z" fill="#44434C"/>
<path d="M722.408 147.025H757.246C756.191 142.773 754.403 139.56 751.881 137.38C748.833 134.861 744.577 133.599 739.12 133.599C735.055 133.599 731.592 134.729 728.731 136.985C725.719 139.351 723.611 142.701 722.408 147.025ZM739.344 115.606C744.464 115.606 749.547 116.659 754.591 118.761C759.521 120.87 763.738 124.029 767.238 128.241C770.475 132.339 772.864 137.307 774.41 143.132C775.35 146.706 775.82 150.694 775.82 155.089C775.82 156.895 775.727 159.04 775.538 161.522C775.313 163.253 774.354 164.117 772.659 164.117H722.408C724.1 168.178 726.811 171.433 730.538 173.875C734.3 176.395 738.423 177.655 742.903 177.655C749.188 177.655 754.459 175.512 758.714 171.225C759.24 170.662 759.898 170.379 760.688 170.379H761.084C762.023 170.491 762.741 170.961 763.229 171.789L769.779 182.846C770.081 183.411 770.231 183.935 770.231 184.423C770.231 185.215 769.837 185.928 769.044 186.566C761.553 192.51 752.84 195.48 742.903 195.48C736.993 195.48 731.497 194.391 726.416 192.21C721.221 190.027 716.779 187 713.09 183.128C709.44 179.514 706.654 175.379 704.734 170.717C702.701 166.055 701.686 160.998 701.686 155.542C701.686 146.367 704.47 138.092 710.042 130.722C713.466 126.174 717.683 122.527 722.688 119.779C727.733 116.996 733.286 115.606 739.344 115.606Z" stroke="#44434C" stroke-width="0.713477" stroke-miterlimit="10"/>
<path d="M832.508 160.506C831.755 160.77 829.93 161.261 827.032 161.973C825.035 162.539 822.476 163.273 819.352 164.174C815.363 165.491 811.845 166.862 808.795 168.29C807.212 169.269 805.971 170.096 805.067 170.774C803.826 171.789 803.203 173.067 803.203 174.607V174.945C803.242 176.49 803.862 177.599 805.067 178.277C806.273 178.953 807.476 179.33 808.68 179.402C809.132 179.478 809.847 179.514 810.827 179.514C813.499 179.514 816.453 178.976 819.692 177.879C822.176 177.129 824.415 176.171 826.412 175.005C830.476 172.822 832.508 170.696 832.508 168.631V160.506ZM832.396 142.003C832.396 138.808 831.811 136.42 830.646 134.841C829.478 133.298 827.992 132.245 826.185 131.683C824.754 131.304 823.323 131.118 821.894 131.118C819.522 131.118 817.131 131.663 814.724 132.755C810.997 134.409 808.417 136.854 806.986 140.086C806.459 141.293 805.669 141.894 804.616 141.894C804.277 141.894 803.919 141.832 803.542 141.72L792.249 138.45C791.347 138.186 790.725 137.625 790.387 136.757C790.238 136.42 790.162 136.063 790.162 135.686C790.162 135.233 790.274 134.784 790.5 134.333C792.796 130.01 795.883 126.362 799.759 123.389C802.848 121.055 806.214 119.255 809.867 117.977C813.066 116.844 816.322 116.113 819.636 115.773C820.764 115.661 821.857 115.606 822.91 115.606C825.432 115.606 828.01 115.85 830.646 116.338C835.614 117.354 839.754 119.348 843.068 122.317C847.508 126.528 849.844 132.398 850.069 139.92L850.125 175.962H853.061C855.017 175.962 855.996 176.942 855.996 178.896V191.193C855.996 193.111 855.017 194.071 853.061 194.071H835.387C833.467 194.071 832.508 193.111 832.508 191.193V190.687C829.308 192.231 825.827 193.393 822.063 194.181C817.885 195.046 813.724 195.556 809.585 195.705H808.624C804.296 195.705 800.458 194.991 797.107 193.563C792.816 191.644 789.766 188.769 787.96 184.933C786.641 182.263 785.982 179.271 785.982 175.962C785.982 174.76 786.058 173.65 786.209 172.636C786.698 168.424 788.166 164.759 790.613 161.633C792.608 159.117 795.074 157.011 798.01 155.317C801.999 153.064 806.535 151.013 811.618 149.17C815.681 147.626 819.164 146.424 822.063 145.559C823.756 144.995 825.479 144.409 827.23 143.809C828.979 143.208 830.703 142.607 832.396 142.003Z" fill="#44434C"/>
<path d="M832.508 160.506C831.755 160.77 829.93 161.261 827.032 161.973C825.035 162.539 822.476 163.273 819.352 164.174C815.363 165.491 811.845 166.862 808.795 168.29C807.212 169.269 805.971 170.096 805.067 170.774C803.826 171.789 803.203 173.067 803.203 174.607V174.945C803.242 176.49 803.862 177.599 805.067 178.277C806.273 178.953 807.476 179.33 808.68 179.402C809.132 179.478 809.847 179.514 810.827 179.514C813.499 179.514 816.453 178.976 819.692 177.879C822.176 177.129 824.415 176.171 826.412 175.005C830.476 172.822 832.508 170.696 832.508 168.631V160.506ZM832.396 142.003C832.396 138.808 831.811 136.42 830.646 134.841C829.478 133.298 827.992 132.245 826.185 131.683C824.754 131.304 823.323 131.118 821.894 131.118C819.522 131.118 817.131 131.663 814.724 132.755C810.997 134.409 808.417 136.854 806.986 140.086C806.459 141.293 805.669 141.894 804.616 141.894C804.277 141.894 803.919 141.832 803.542 141.72L792.249 138.45C791.347 138.186 790.725 137.625 790.387 136.757C790.238 136.42 790.162 136.063 790.162 135.686C790.162 135.233 790.274 134.784 790.5 134.333C792.796 130.01 795.883 126.362 799.759 123.389C802.848 121.055 806.214 119.255 809.867 117.977C813.066 116.844 816.322 116.113 819.636 115.773C820.764 115.661 821.857 115.606 822.91 115.606C825.432 115.606 828.01 115.85 830.646 116.338C835.614 117.354 839.754 119.348 843.068 122.317C847.508 126.528 849.844 132.398 850.069 139.92L850.125 175.962H853.061C855.017 175.962 855.996 176.942 855.996 178.896V191.193C855.996 193.111 855.017 194.071 853.061 194.071H835.387C833.467 194.071 832.508 193.111 832.508 191.193V190.687C829.308 192.231 825.827 193.393 822.063 194.181C817.885 195.046 813.724 195.556 809.585 195.705H808.624C804.296 195.705 800.458 194.991 797.107 193.563C792.816 191.644 789.766 188.769 787.96 184.933C786.641 182.263 785.982 179.271 785.982 175.962C785.982 174.76 786.058 173.65 786.209 172.636C786.698 168.424 788.166 164.759 790.613 161.633C792.608 159.117 795.074 157.011 798.01 155.317C801.999 153.064 806.535 151.013 811.618 149.17C815.681 147.626 819.164 146.424 822.063 145.559C823.756 144.995 825.479 144.409 827.23 143.809C828.979 143.208 830.703 142.607 832.396 142.003Z" stroke="#44434C" stroke-width="0.713477" stroke-miterlimit="10"/>
<path d="M866.16 191.193V178.896C866.16 176.942 867.119 175.962 869.039 175.962H871.976V135.233H869.039C867.119 135.233 866.16 134.279 866.16 132.358V119.952C866.16 118.029 867.119 117.072 869.039 117.072H887.278C889.196 117.072 890.157 118.029 890.157 119.952V121.415C893.581 119.573 897.121 118.124 900.773 117.072C904.235 116.132 907.679 115.661 911.104 115.661C911.932 115.661 913.099 115.737 914.606 115.886C920.1 116.417 924.731 118.219 928.495 121.302C932.9 125.216 935.103 130.535 935.103 137.264V175.962H937.926C939.844 175.962 940.803 176.942 940.803 178.896V191.193C940.803 193.111 939.844 194.071 937.926 194.071H925.051C922.83 194.071 920.93 193.293 919.347 191.728C917.767 190.168 916.977 188.262 916.977 186.004V141.609C916.977 137.662 915.151 135.233 911.5 134.333C910.22 134.069 909.11 133.939 908.169 133.939C906.211 133.939 904.027 134.315 901.62 135.067C896.575 136.681 892.755 139.258 890.157 142.792V185.947C890.157 188.165 889.366 190.064 887.784 191.644C886.204 193.222 884.322 194.014 882.139 194.014L869.039 194.071C868.249 194.071 867.572 193.791 867.007 193.222C866.443 192.735 866.16 192.058 866.16 191.193Z" fill="#44434C"/>
<path d="M866.16 191.193V178.896C866.16 176.942 867.119 175.962 869.039 175.962H871.976V135.233H869.039C867.119 135.233 866.16 134.279 866.16 132.358V119.952C866.16 118.029 867.119 117.072 869.039 117.072H887.278C889.196 117.072 890.157 118.029 890.157 119.952V121.415C893.581 119.573 897.121 118.124 900.773 117.072C904.235 116.132 907.679 115.661 911.104 115.661C911.932 115.661 913.099 115.737 914.606 115.886C920.1 116.417 924.731 118.219 928.495 121.302C932.9 125.216 935.103 130.535 935.103 137.264V175.962H937.926C939.844 175.962 940.803 176.942 940.803 178.896V191.193C940.803 193.111 939.844 194.071 937.926 194.071H925.051C922.83 194.071 920.93 193.293 919.347 191.728C917.767 190.168 916.977 188.262 916.977 186.004V141.609C916.977 137.662 915.151 135.233 911.5 134.333C910.22 134.069 909.11 133.939 908.169 133.939C906.211 133.939 904.027 134.315 901.62 135.067C896.575 136.681 892.755 139.258 890.157 142.792V185.947C890.157 188.165 889.366 190.064 887.784 191.644C886.204 193.222 884.322 194.014 882.139 194.014L869.039 194.071C868.249 194.071 867.572 193.791 867.007 193.222C866.443 192.735 866.16 192.058 866.16 191.193Z" stroke="#44434C" stroke-width="0.713477" stroke-miterlimit="10"/>
<path d="M953.846 95.4655H1014.88C1017.1 95.4655 1019.01 96.2667 1020.59 97.8626C1022.17 99.4611 1022.96 101.37 1022.96 103.589V116.62C1022.96 118.54 1022 119.499 1020.08 119.499H1008.45C1006.49 119.499 1005.51 118.54 1005.51 116.62V113.574H975.135V135.686H1002.63C1004.55 135.686 1005.51 136.645 1005.51 138.562V150.972C1005.51 152.893 1004.55 153.849 1002.63 153.849H975.135V175.794H1005.51V172.803C1005.51 170.848 1006.49 169.869 1008.45 169.869H1020.08C1022 169.869 1022.96 170.848 1022.96 172.803V186.004C1022.96 188.262 1022.17 190.168 1020.59 191.728C1019.01 193.293 1017.1 194.071 1014.88 194.071H964.971C962.711 194.071 960.791 193.293 959.211 191.728C957.631 190.168 956.839 188.262 956.839 186.004V113.574H953.846C951.928 113.574 950.967 112.614 950.967 110.697V98.4003C950.967 96.4464 951.928 95.4655 953.846 95.4655Z" fill="#1D79B5"/>
<path d="M1034.03 189.612L1056.55 155.542L1043.06 135.233H1040.35C1038.43 135.233 1037.47 134.279 1037.47 132.358V119.952C1037.47 118.029 1038.43 117.072 1040.35 117.072H1047.97C1050.91 117.072 1053.17 118.295 1054.75 120.737L1067.17 139.467L1081.23 118.368C1081.72 117.506 1082.51 117.072 1083.6 117.072H1097.94C1099.15 117.072 1099.99 117.579 1100.48 118.594C1100.74 119.084 1100.88 119.55 1100.88 120.003C1100.88 120.534 1100.71 121.055 1100.37 121.584L1077.78 155.542L1091.33 175.962H1093.93C1095.89 175.962 1096.87 176.942 1096.87 178.896V191.193C1096.87 193.111 1095.89 194.071 1093.93 194.071H1086.37C1083.43 194.071 1081.17 192.867 1079.59 190.459L1067.17 171.619L1053.22 192.831C1052.62 193.656 1051.81 194.071 1050.79 194.071H1036.45C1035.25 194.071 1034.4 193.563 1033.91 192.546C1033.65 192.096 1033.52 191.644 1033.52 191.193C1033.52 190.666 1033.69 190.14 1034.03 189.612Z" fill="#1D79B5"/>
<path d="M1135.38 176.076C1139.97 175.813 1144.16 175.078 1147.97 173.875C1151.17 172.861 1153.78 171.544 1155.81 169.927C1159.47 167.333 1161.93 163.758 1163.21 159.208C1163.85 157.029 1164.17 154.526 1164.17 151.706C1164.17 150.918 1164.15 150.353 1164.12 150.017C1163.85 144.561 1162.18 140.52 1159.09 137.887C1156.76 135.968 1154.1 135.01 1151.13 135.01C1149.36 135.01 1147.49 135.349 1145.54 136.027C1141.32 137.38 1137.93 139.938 1135.38 143.697V176.076ZM1114.37 197.455H1117.25V135.233H1114.37C1112.45 135.233 1111.49 134.279 1111.49 132.358V119.952C1111.49 118.029 1112.45 117.072 1114.37 117.072H1132.49C1134.42 117.072 1135.38 118.029 1135.38 119.952V120.683C1141.28 117.297 1147.35 115.606 1153.56 115.606H1154.91C1160.86 116.019 1166.15 118.029 1170.78 121.641C1174.92 125.025 1178.01 129.369 1180.04 134.67C1181.8 139.258 1182.69 144.336 1182.69 149.901V151.201C1182.58 155.146 1182.09 158.928 1181.22 162.539C1179.87 167.727 1177.91 172.183 1175.35 175.908C1171.47 181.511 1166.28 185.834 1159.77 188.881C1152.65 192.343 1144.52 194.109 1135.38 194.181V207.719C1135.38 209.94 1134.57 211.839 1132.98 213.418C1131.38 214.997 1129.47 215.787 1127.24 215.787H1114.37C1112.45 215.787 1111.49 214.829 1111.49 212.912V200.387C1111.49 198.432 1112.45 197.455 1114.37 197.455Z" fill="#1D79B5"/>
<path d="M1192.85 191.193V178.896C1192.85 176.942 1193.82 175.962 1195.73 175.962H1198.78V135.233H1195.73C1193.82 135.233 1192.85 134.279 1192.85 132.358V119.952C1192.85 118.029 1193.82 117.072 1195.73 117.072H1214.03C1215.95 117.072 1216.91 118.029 1216.91 119.952V121.36C1222.63 118.124 1228.75 116.262 1235.26 115.773C1236.28 115.661 1237.23 115.606 1238.14 115.606C1242.62 115.606 1246.66 116.434 1250.28 118.089L1240.34 135.233C1238.76 134.333 1236.9 133.881 1234.75 133.881C1233.85 133.881 1232.81 133.976 1231.64 134.164C1228.97 134.616 1226.21 135.593 1223.34 137.098C1220.64 138.674 1218.49 140.556 1216.91 142.737V186.004C1216.91 188.262 1216.12 190.168 1214.54 191.728C1212.96 193.293 1211.05 194.071 1208.83 194.071H1195.73C1193.82 194.071 1192.85 193.111 1192.85 191.193Z" fill="#1D79B5"/>
<path d="M1276.03 147.025H1310.86C1309.81 142.773 1308.02 139.56 1305.5 137.38C1302.45 134.861 1298.2 133.599 1292.74 133.599C1288.67 133.599 1285.21 134.729 1282.35 136.985C1279.34 139.351 1277.23 142.701 1276.03 147.025ZM1292.96 115.606C1298.08 115.606 1303.16 116.659 1308.21 118.761C1313.14 120.87 1317.36 124.029 1320.86 128.241C1324.09 132.339 1326.48 137.307 1328.03 143.132C1328.97 146.706 1329.44 150.694 1329.44 155.089C1329.44 156.895 1329.35 159.04 1329.16 161.522C1328.93 163.253 1327.97 164.117 1326.28 164.117H1276.03C1277.72 168.178 1280.43 171.433 1284.16 173.875C1287.92 176.395 1292.04 177.655 1296.52 177.655C1302.81 177.655 1308.08 175.512 1312.33 171.225C1312.86 170.662 1313.52 170.379 1314.31 170.379H1314.7C1315.64 170.491 1316.36 170.961 1316.85 171.789L1323.4 182.846C1323.7 183.411 1323.85 183.935 1323.85 184.423C1323.85 185.215 1323.45 185.928 1322.66 186.566C1315.17 192.51 1306.46 195.48 1296.52 195.48C1290.61 195.48 1285.12 194.391 1280.03 192.21C1274.84 190.027 1270.4 187 1266.71 183.128C1263.06 179.514 1260.27 175.379 1258.35 170.717C1256.32 166.055 1255.3 160.998 1255.3 155.542C1255.3 146.367 1258.09 138.092 1263.66 130.722C1267.09 126.174 1271.3 122.527 1276.31 119.779C1281.35 116.996 1286.9 115.606 1292.96 115.606Z" fill="#1D79B5"/>
<path d="M1377.55 176.413C1378.71 175.701 1379.29 174.495 1379.29 172.804C1379.22 171.225 1378.22 169.757 1376.3 168.403C1374.23 167.014 1372.63 165.998 1371.5 165.357C1368.72 163.777 1365.95 162.314 1363.2 160.959C1361.85 160.279 1360.47 159.568 1359.05 158.815C1357.64 158.064 1356.26 157.293 1354.9 156.5C1351.7 154.735 1349.01 152.554 1346.83 149.96C1343.97 146.573 1342.54 142.792 1342.54 138.619V137.717C1342.69 133.657 1343.72 130.162 1345.64 127.227C1347.53 124.294 1349.99 121.849 1353.04 119.891C1355.64 118.276 1358.46 117.149 1361.51 116.505C1364.07 115.904 1366.76 115.606 1369.58 115.606C1373.16 115.606 1376.89 116.055 1380.76 116.957C1383.47 117.636 1386.22 118.54 1389.01 119.666C1390.96 120.455 1392.85 121.264 1394.65 122.094C1395.74 122.658 1396.29 123.52 1396.29 124.689V136.081C1396.29 137.962 1395.33 138.901 1393.41 138.901H1381.27C1379.35 138.901 1378.39 137.962 1378.39 136.081V133.939C1376.62 133.226 1374.48 132.716 1371.96 132.415C1371.62 132.379 1371.09 132.358 1370.37 132.358C1368.49 132.358 1366.57 132.716 1364.61 133.428C1363.37 133.881 1362.47 134.616 1361.9 135.629C1361.72 136.006 1361.62 136.363 1361.62 136.703C1361.62 137.416 1361.94 138.114 1362.58 138.787C1364.24 140.779 1368.51 143.379 1375.4 146.573C1382.36 149.998 1387.78 153.436 1391.66 156.895C1396.37 161.261 1398.72 166.468 1398.72 172.524C1398.72 172.785 1398.71 173.058 1398.69 173.34C1398.67 173.622 1398.66 173.895 1398.66 174.157C1398.29 179.199 1396.68 183.389 1393.86 186.739C1390.36 190.875 1385.45 193.486 1379.13 194.575C1376.53 195.143 1373.63 195.425 1370.43 195.425C1367.16 195.425 1364.11 195.143 1361.28 194.575C1354.62 193.526 1348.22 190.986 1342.09 186.964C1341.07 186.323 1340.56 185.57 1340.56 184.705C1340.56 184.181 1340.77 183.595 1341.18 182.958L1347.96 172.578C1348.37 171.943 1348.99 171.526 1349.82 171.337C1350.01 171.301 1350.2 171.28 1350.39 171.28C1350.91 171.28 1351.44 171.449 1351.97 171.789C1355.2 173.971 1358.57 175.642 1362.07 176.809C1364.9 177.675 1367.57 178.106 1370.09 178.106C1371.48 178.106 1372.69 178.012 1373.7 177.824C1375.02 177.675 1376.3 177.203 1377.55 176.413Z" fill="#1D79B5"/>
<path d="M1446.82 176.413C1447.99 175.701 1448.58 174.495 1448.58 172.804C1448.5 171.225 1447.51 169.757 1445.58 168.403C1443.52 167.014 1441.92 165.998 1440.78 165.357C1438 163.777 1435.23 162.314 1432.49 160.959C1431.13 160.279 1429.75 159.568 1428.34 158.815C1426.92 158.064 1425.54 157.293 1424.18 156.5C1420.98 154.735 1418.29 152.554 1416.11 149.96C1413.25 146.573 1411.82 142.792 1411.82 138.619V137.717C1411.97 133.657 1413 130.162 1414.92 127.227C1416.81 124.294 1419.27 121.849 1422.32 119.891C1424.92 118.276 1427.74 117.149 1430.79 116.505C1433.35 115.904 1436.04 115.606 1438.87 115.606C1442.44 115.606 1446.17 116.055 1450.04 116.957C1452.75 117.636 1455.5 118.54 1458.29 119.666C1460.24 120.455 1462.13 121.264 1463.94 122.094C1465.02 122.658 1465.57 123.52 1465.57 124.689V136.081C1465.57 137.962 1464.61 138.901 1462.69 138.901H1450.56C1448.63 138.901 1447.67 137.962 1447.67 136.081V133.939C1445.9 133.226 1443.76 132.716 1441.24 132.415C1440.9 132.379 1440.37 132.358 1439.65 132.358C1437.77 132.358 1435.85 132.716 1433.89 133.428C1432.65 133.881 1431.75 134.616 1431.18 135.629C1431 136.006 1430.9 136.363 1430.9 136.703C1430.9 137.416 1431.22 138.114 1431.86 138.787C1433.52 140.779 1437.79 143.379 1444.68 146.573C1451.64 149.998 1457.07 153.436 1460.94 156.895C1465.65 161.261 1468 166.468 1468 172.524C1468 172.785 1467.99 173.058 1467.97 173.34C1467.95 173.622 1467.95 173.895 1467.95 174.157C1467.57 179.199 1465.96 183.389 1463.14 186.739C1459.64 190.875 1454.73 193.486 1448.4 194.575C1445.81 195.143 1442.91 195.425 1439.71 195.425C1436.44 195.425 1433.39 195.143 1430.56 194.575C1423.9 193.526 1417.5 190.986 1411.37 186.964C1410.35 186.323 1409.84 185.57 1409.84 184.705C1409.84 184.181 1410.05 183.595 1410.46 182.958L1417.24 172.578C1417.65 171.943 1418.28 171.526 1419.1 171.337C1419.29 171.301 1419.48 171.28 1419.67 171.28C1420.19 171.28 1420.72 171.449 1421.25 171.789C1424.49 173.971 1427.86 175.642 1431.35 176.809C1434.18 177.675 1436.85 178.106 1439.37 178.106C1440.76 178.106 1441.97 178.012 1442.99 177.824C1444.31 177.675 1445.58 177.203 1446.82 176.413Z" fill="#1D79B5"/>
<path d="M290.838 311.192C278.534 320.965 264.923 329.098 250.011 335.578C228.576 344.92 205.76 349.775 181.556 350.152C157.97 350.518 135.39 346.368 113.85 337.717C92.2953 329.062 73.2452 317.095 56.7058 301.842C40.1705 286.583 26.8526 268.495 16.7428 247.561C6.64106 226.604 1.3995 204.194 1.02349 180.315C0.640805 155.81 4.93432 132.7 13.9094 111.004C22.8857 89.3043 35.3183 70.4084 51.2083 54.3391C67.0943 38.2737 85.7511 25.4841 107.185 16.0009C128.613 6.52691 151.581 1.5907 176.098 1.19756C200.307 0.820415 223.264 4.95834 244.978 13.6167C266.692 22.283 285.809 34.3157 302.351 49.7214C318.885 65.1364 332.132 83.3886 342.082 104.483C348.797 118.719 353.337 133.732 355.697 149.521L315.735 128.942C314.433 125.252 312.962 121.6 311.323 117.995C303.448 100.595 292.817 85.4063 279.418 72.4114C266.015 59.4485 250.494 49.2869 232.845 41.9639C215.186 34.6369 196.434 31.1293 176.582 31.4318C156.394 31.753 137.604 35.9349 120.191 43.9616C102.774 51.9789 87.6525 62.6962 74.8306 76.0829C61.9994 89.4696 52.007 105.139 44.8373 123.089C37.669 141.049 34.2302 159.944 34.5422 179.793C34.8449 199.331 39.0091 217.658 47.0374 234.745C55.0658 251.851 65.7729 266.72 79.1748 279.391C92.5593 292.041 108.008 301.964 125.498 309.141C142.997 316.327 161.518 319.744 181.08 319.438C200.628 319.139 219.115 315.133 236.532 307.408C247.966 302.327 258.442 296.076 267.981 288.64L290.838 311.192Z" fill="#44434C"/>
<path d="M290.838 311.192C278.534 320.965 264.923 329.098 250.011 335.578C228.576 344.92 205.76 349.775 181.556 350.152C157.97 350.518 135.39 346.368 113.85 337.717C92.2953 329.062 73.2452 317.095 56.7058 301.842C40.1705 286.583 26.8526 268.495 16.7428 247.561C6.64106 226.604 1.3995 204.194 1.02349 180.315C0.640805 155.81 4.93432 132.7 13.9094 111.004C22.8857 89.3043 35.3183 70.4084 51.2083 54.3391C67.0943 38.2737 85.7511 25.4841 107.185 16.0009C128.613 6.52691 151.581 1.5907 176.098 1.19756C200.307 0.820415 223.264 4.95834 244.978 13.6167C266.692 22.283 285.809 34.3157 302.351 49.7214C318.885 65.1364 332.132 83.3886 342.082 104.483C348.797 118.719 353.337 133.732 355.697 149.521L315.735 128.942C314.433 125.252 312.962 121.6 311.323 117.995C303.448 100.595 292.817 85.4063 279.418 72.4114C266.015 59.4485 250.494 49.2869 232.845 41.9639C215.186 34.6369 196.434 31.1293 176.582 31.4318C156.394 31.753 137.604 35.9349 120.191 43.9616C102.774 51.9789 87.6525 62.6962 74.8306 76.0829C61.9994 89.4696 52.007 105.139 44.8373 123.089C37.669 141.049 34.2302 159.944 34.5422 179.793C34.8449 199.331 39.0091 217.658 47.0374 234.745C55.0658 251.851 65.7729 266.72 79.1748 279.391C92.5593 292.041 108.008 301.964 125.498 309.141C142.997 316.327 161.518 319.744 181.08 319.438C200.628 319.139 219.115 315.133 236.532 307.408C247.966 302.327 258.442 296.076 267.981 288.64L290.838 311.192Z" stroke="#44434C" stroke-width="0.713459" stroke-miterlimit="10"/>
<path d="M136.53 256.245C136.53 256.245 190.047 186.124 279.226 263.379C279.226 263.379 304.199 281.202 322.037 300.219C322.037 300.219 331.55 309.048 347.01 311.168H435" stroke="#24516F" stroke-width="28.5384" stroke-miterlimit="10"/>
<path d="M136.53 192.06C136.53 192.06 190.047 121.941 279.226 199.194C279.226 199.194 304.199 217.029 322.037 236.046C322.037 236.046 331.55 244.883 347.01 246.994H435" stroke="#1D79B5" stroke-width="28.5384" stroke-miterlimit="10"/>
<path d="M136.53 127.882C136.53 127.882 190.047 57.7641 279.226 135.015C279.226 135.015 304.199 152.853 322.037 171.869C322.037 171.869 331.55 180.7 347.01 182.819H435" stroke="#27A8D2" stroke-width="28.5384" stroke-miterlimit="10"/>
</svg>
