<svg width="50" height="51" viewBox="0 0 50 51" fill="none" xmlns="http://www.w3.org/2000/svg">
<path d="M25 0.242188C11.1925 0.242188 0 11.4347 0 25.2422C0 39.0496 11.1925 50.2422 25 50.2422C38.8075 50.2422 50 39.0496 50 25.2422C50 11.4347 38.8075 0.242188 25 0.242188ZM25 43.7906C14.749 43.7906 6.45161 35.4952 6.45161 25.2422C6.45161 14.9912 14.747 6.6938 25 6.6938C35.251 6.6938 43.5484 14.9892 43.5484 25.2422C43.5484 35.4932 35.253 43.7906 25 43.7906ZM25 12.339C17.874 12.339 12.0968 18.1162 12.0968 25.2422C12.0968 32.3682 17.874 38.1454 25 38.1454C32.126 38.1454 37.9032 32.3682 37.9032 25.2422C37.9032 18.1162 32.126 12.339 25 12.339ZM25 31.6938C21.4425 31.6938 18.5484 28.7996 18.5484 25.2422C18.5484 21.6847 21.4425 18.7906 25 18.7906C28.5575 18.7906 31.4516 21.6847 31.4516 25.2422C31.4516 28.7996 28.5575 31.6938 25 31.6938Z" fill="#FFD199"/>
</svg>
