<svg width="50" height="35" viewBox="0 0 50 35" fill="none" xmlns="http://www.w3.org/2000/svg">
<g clip-path="url(#clip0_1619_118)">
<path d="M49.698 15.9875C44.9905 6.89445 35.671 0.742188 25 0.742188C14.329 0.742188 5.00691 6.89875 0.302036 15.9884C0.103461 16.3772 0 16.8069 0 17.2426C0 17.6784 0.103461 18.108 0.302036 18.4969C5.00951 27.5899 14.329 33.7422 25 33.7422C35.671 33.7422 44.9931 27.5856 49.698 18.496C49.8965 18.1071 50 17.6775 50 17.2418C50 16.806 49.8965 16.3764 49.698 15.9875ZM25 29.6172C22.5277 29.6172 20.111 28.8914 18.0554 27.5316C15.9997 26.1718 14.3976 24.2391 13.4515 21.9779C12.5054 19.7167 12.2578 17.2285 12.7402 14.8279C13.2225 12.4274 14.413 10.2224 16.1611 8.49174C17.9093 6.76107 20.1366 5.58246 22.5614 5.10497C24.9861 4.62748 27.4995 4.87254 29.7836 5.80918C32.0676 6.74581 34.0199 8.33195 35.3934 10.367C36.7669 12.4021 37.5 14.7946 37.5 17.2422C37.5008 18.8675 37.178 20.4771 36.5501 21.9788C35.9222 23.4806 35.0015 24.8451 33.8406 25.9944C32.6797 27.1437 31.3014 28.0552 29.7845 28.6768C28.2676 29.2984 26.6418 29.618 25 29.6172ZM25 8.99219C24.2562 9.00248 23.5172 9.11203 22.8029 9.31789C23.3917 10.1099 23.6742 11.0847 23.5993 12.0653C23.5243 13.0459 23.0969 13.9674 22.3945 14.6628C21.6921 15.3581 20.7613 15.7813 19.7708 15.8555C18.7803 15.9296 17.7957 15.65 16.9956 15.0671C16.5401 16.7288 16.6223 18.4901 17.2308 20.103C17.8393 21.716 18.9434 23.0995 20.3877 24.0587C21.832 25.0179 23.5438 25.5046 25.2821 25.4502C27.0204 25.3959 28.6978 24.8032 30.078 23.7557C31.4583 22.7081 32.472 21.2584 32.9764 19.6106C33.4809 17.9628 33.4507 16.1999 32.89 14.57C32.3294 12.9401 31.2666 11.5253 29.8513 10.5247C28.4359 9.52413 26.7392 8.98813 25 8.99219Z" fill="#FFD199"/>
</g>
<defs>
<clipPath id="clip0_1619_118">
<rect width="50" height="34" fill="white" transform="translate(0 0.5)"/>
</clipPath>
</defs>
</svg>
