<svg width="512" height="512" viewBox="0 0 512 512" fill="none" xmlns="http://www.w3.org/2000/svg">
<rect width="512" height="512" fill="white"/>
<path d="M331.78 395.825C319.053 405.938 304.975 414.355 289.552 421.061C267.382 430.728 243.783 435.752 218.749 436.143C194.354 436.522 171 432.227 148.72 423.274C126.427 414.318 106.723 401.934 89.6165 386.149C72.514 370.358 58.7393 351.64 48.2828 329.976C37.8345 308.288 32.4132 285.097 32.0243 260.386C31.6285 235.026 36.0693 211.111 45.3522 188.659C54.6364 166.203 67.4954 146.648 83.9304 130.018C100.361 113.393 119.658 100.158 141.827 90.3438C163.99 80.5396 187.745 75.4313 213.103 75.0244C238.143 74.6341 261.887 78.9163 284.346 87.8765C306.805 96.8449 326.578 109.297 343.687 125.24C360.788 141.192 374.49 160.081 384.781 181.911C391.726 196.643 396.422 212.178 398.863 228.518L357.531 207.222C356.183 203.403 354.662 199.624 352.967 195.894C344.822 177.886 333.826 162.169 319.968 148.721C306.105 135.306 290.052 124.79 271.797 117.212C253.532 109.629 234.138 106 213.604 106.313C192.724 106.645 173.289 110.973 155.279 119.279C137.265 127.576 121.625 138.667 108.363 152.52C95.0916 166.373 84.7565 182.589 77.3409 201.165C69.9268 219.751 66.37 239.304 66.6927 259.845C67.0058 280.064 71.3128 299.03 79.6165 316.713C87.9202 334.416 98.9946 349.803 112.856 362.915C126.7 376.006 142.678 386.275 160.768 393.703C178.868 401.139 198.024 404.675 218.257 404.358C238.475 404.049 257.597 399.903 275.611 391.909C287.437 386.651 298.273 380.182 308.139 372.486L331.78 395.825Z" fill="#44434C"/>
<path d="M331.78 395.825C319.053 405.938 304.975 414.355 289.552 421.061C267.382 430.728 243.783 435.752 218.749 436.143C194.354 436.522 171 432.227 148.72 423.274C126.427 414.318 106.723 401.934 89.6165 386.149C72.514 370.358 58.7393 351.64 48.2828 329.976C37.8345 308.288 32.4132 285.097 32.0243 260.386C31.6285 235.026 36.0693 211.111 45.3522 188.659C54.6364 166.203 67.4954 146.648 83.9304 130.018C100.361 113.393 119.658 100.158 141.827 90.3438C163.99 80.5396 187.745 75.4313 213.103 75.0244C238.143 74.6341 261.887 78.9163 284.346 87.8765C306.805 96.8449 326.578 109.297 343.687 125.24C360.788 141.192 374.49 160.081 384.781 181.911C391.726 196.643 396.422 212.178 398.863 228.518L357.531 207.222C356.183 203.403 354.662 199.624 352.967 195.894C344.822 177.886 333.826 162.169 319.968 148.721C306.105 135.306 290.052 124.79 271.797 117.212C253.532 109.629 234.138 106 213.604 106.313C192.724 106.645 173.289 110.973 155.279 119.279C137.265 127.576 121.625 138.667 108.363 152.52C95.0916 166.373 84.7565 182.589 77.3409 201.165C69.9268 219.751 66.37 239.304 66.6927 259.845C67.0058 280.064 71.3128 299.03 79.6165 316.713C87.9202 334.416 98.9946 349.803 112.856 362.915C126.7 376.006 142.678 386.275 160.768 393.703C178.868 401.139 198.024 404.675 218.257 404.358C238.475 404.049 257.597 399.903 275.611 391.909C287.437 386.651 298.273 380.182 308.139 372.486L331.78 395.825Z" stroke="#44434C" stroke-width="0.713459" stroke-miterlimit="10"/>
<path d="M172.179 338.963C172.179 338.963 227.532 266.397 319.769 346.345C319.769 346.345 345.599 364.79 364.049 384.47C364.049 384.47 373.889 393.606 389.878 395.801H480.887" stroke="#24516F" stroke-width="28.5384" stroke-miterlimit="10"/>
<path d="M172.179 272.54C172.179 272.54 227.532 199.977 319.769 279.922C319.769 279.922 345.599 298.379 364.049 318.059C364.049 318.059 373.889 327.204 389.878 329.389H480.887" stroke="#1D79B5" stroke-width="28.5384" stroke-miterlimit="10"/>
<path d="M172.179 206.125C172.179 206.125 227.532 133.563 319.769 213.506C319.769 213.506 345.599 231.966 364.049 251.645C364.049 251.645 373.889 260.784 389.878 262.977H480.887" stroke="#27A8D2" stroke-width="28.5384" stroke-miterlimit="10"/>
</svg>
