<svg width="1280" height="156" viewBox="0 0 1280 156" fill="none" xmlns="http://www.w3.org/2000/svg">
<path d="M12 107H1268C1274.63 107 1280 101.627 1280 95V69.9831L1273.38 61.2685C1270.19 57.06 1264.63 55.3932 1259.54 56.8237C1230.72 64.9293 1131.59 85.6345 1014.5 29.3017C875 -37.8118 746 40.5047 730 40.5034C622.315 40.495 594 -0.573266 482 0.0060745C370 0.585415 306 44.3222 194 31.038C97.1094 19.5459 24.9153 50.2525 7.2002 58.7465C4.44873 60.0657 2.46973 62.469 1.51697 65.3678L0 69.9831V95C0 101.627 5.37256 107 12 107Z" fill="#A7CDE9"/>
<path d="M1268 107H12.0001C5.37267 107 6.27442e-05 101.632 0.000140205 95.0042L0.000430107 70.2006C0.700222 68.056 14.3594 65.2532 16.519 65.9051C30.7908 70.2133 63.3582 67.3106 135.51 40.8954C288.51 -15.119 539.807 40.8951 549.999 40.8943C657.685 40.886 810.01 23.2222 919.51 24.2203C1029.01 25.2183 1087.03 31.5587 1135.01 40.8954C1181.29 49.9014 1247.16 57.7422 1269.36 60.2721C1274.03 60.8047 1277.95 63.9937 1279.42 68.46L1280 70.2006V95C1280 101.627 1274.63 107 1268 107Z" fill="#FFC47E" fill-opacity="0.58"/>
<path d="M1268 156H12C5.37258 156 0 150.627 0 144V53.836C0 51.5353 0.716103 49.3248 2.61926 48.032C12.5355 41.2961 57.0719 22.7847 239 36.3937C458.5 52.8134 393.5 45.656 665.5 18.5588C937.5 -8.53829 952.5 74.2546 1086 36.3936C1198.67 4.44038 1259.34 36.3353 1275.53 47.0671C1278.46 49.0042 1280 52.3305 1280 55.8367V144C1280 150.627 1274.63 156 1268 156Z" fill="#346385"/>
</svg>
