<svg width="457" height="288" viewBox="0 0 457 288" fill="none" xmlns="http://www.w3.org/2000/svg">
<path d="M262.076 106.386H263.666C267.176 109.356 271.036 111.636 275.256 113.236C279.476 114.826 283.566 115.626 287.546 115.626C288.546 115.626 289.856 115.516 291.496 115.306C293.146 115.086 294.466 114.746 295.456 114.266C296.676 113.736 297.716 112.996 298.556 112.046C299.406 111.086 299.826 109.836 299.826 108.276C299.826 106.526 299.136 105.096 297.756 103.986C296.396 102.896 294.736 102.096 292.826 101.596C290.446 100.966 287.916 100.376 285.206 99.8158C282.496 99.2558 279.976 98.5658 277.626 97.7458C272.206 95.8358 268.336 93.2658 265.976 90.0458C263.636 86.8158 262.466 82.7758 262.466 77.9158C262.466 71.3658 265.246 66.0658 270.776 62.0058C276.326 57.9458 283.246 55.9258 291.546 55.9258C295.716 55.9258 299.856 56.3458 303.986 57.1958C308.096 58.0458 311.786 59.1858 315.046 60.6258V76.6258H313.506C310.906 74.4158 307.746 72.5458 304.006 71.0258C300.266 69.4958 296.426 68.7258 292.486 68.7258C290.966 68.7258 289.586 68.8358 288.366 69.0458C287.146 69.2658 285.866 69.6858 284.516 70.3158C283.426 70.7958 282.476 71.5358 281.696 72.5158C280.896 73.4958 280.496 74.5858 280.496 75.8058C280.496 77.5858 281.126 78.9958 282.386 80.0558C283.656 81.0958 286.106 82.0458 289.736 82.8958C292.076 83.4258 294.346 83.9358 296.526 84.4358C298.696 84.9458 301.016 85.6258 303.496 86.5058C308.346 88.2558 311.956 90.6158 314.316 93.5858C316.676 96.5358 317.866 100.456 317.866 105.306C317.866 112.276 315.136 117.856 309.666 122.096C304.206 126.316 296.826 128.436 287.516 128.436C282.176 128.436 277.466 127.926 273.406 126.876C269.346 125.846 265.586 124.566 262.106 123.026V106.386H262.076Z" fill="white"/>
<path d="M206.776 65.6354C212.976 59.0354 221.306 55.7354 231.796 55.7354C234.576 55.7354 237.096 55.8954 239.306 56.2054C241.536 56.5254 243.656 56.9554 245.696 57.5254C247.306 58.0054 249.036 58.6453 250.916 59.4653C252.796 60.2653 254.316 60.9754 255.476 61.5654V78.2754H253.696C252.846 77.5254 251.786 76.6354 250.506 75.5954C249.206 74.5554 247.766 73.5254 246.126 72.5254C244.506 71.5254 242.706 70.6754 240.746 69.9754C238.786 69.2854 236.736 68.9353 234.596 68.9353C232.056 68.9353 229.736 69.3354 227.616 70.1354C225.516 70.9254 223.496 72.3154 221.586 74.2754C219.836 76.0554 218.396 78.4854 217.286 81.5154C216.176 84.5454 215.616 88.1254 215.616 92.2554C215.616 96.6054 216.196 100.265 217.346 103.215C218.516 106.165 220.026 108.555 221.916 110.375C223.726 112.125 225.756 113.395 227.996 114.175C230.226 114.965 232.476 115.345 234.686 115.345C237.016 115.345 239.216 114.955 241.316 114.205C243.416 113.455 245.196 112.595 246.626 111.665C248.196 110.715 249.576 109.735 250.766 108.745C251.956 107.755 252.996 106.865 253.866 106.095H255.476V122.535C254.196 123.125 252.696 123.805 251.016 124.575C249.326 125.345 247.586 125.985 245.796 126.515C243.596 127.175 241.556 127.675 239.646 128.025C237.736 128.365 235.106 128.535 231.746 128.535C221.246 128.535 212.916 125.355 206.756 119.005C200.576 112.645 197.496 103.725 197.496 92.2054C197.506 81.0954 200.596 72.2454 206.776 65.6354Z" fill="white"/>
<path d="M138.256 57.1758H165.466C169.506 57.1758 172.996 57.5458 175.926 58.2858C178.866 59.0258 181.516 60.1758 183.906 61.7858C186.536 63.5358 188.576 65.8758 190.026 68.8158C191.466 71.7358 192.196 75.2158 192.196 79.2658C192.196 82.5258 191.686 85.6258 190.636 88.5758C189.606 91.5158 188.116 93.9858 186.176 95.9558C184.986 97.1758 183.676 98.2958 182.246 99.3458C180.816 100.376 179.246 101.256 177.526 101.976C175.796 102.686 173.926 103.256 171.906 103.666C169.886 104.066 167.616 104.276 165.096 104.276H155.886V127.196H138.266V57.1758H138.256Z" fill="white"/>
<path d="M132.887 162.276C191.887 94.6757 238.647 192.746 321.377 140.836C248.047 209.706 205.217 113.586 132.887 162.276Z" fill="white"/>
<path d="M121.166 0.985352V178.195C202.686 121.065 250.966 233.835 333.616 153.035V0.985352H121.166ZM262.076 106.385H263.666C267.176 109.355 271.036 111.635 275.256 113.235C279.476 114.825 283.566 115.625 287.546 115.625C288.546 115.625 289.856 115.515 291.496 115.305C293.146 115.085 294.466 114.745 295.456 114.265C296.676 113.735 297.716 112.995 298.556 112.045C299.406 111.085 299.826 109.835 299.826 108.275C299.826 106.525 299.136 105.095 297.756 103.985C296.396 102.895 294.736 102.095 292.826 101.595C290.446 100.965 287.916 100.375 285.206 99.8154C282.496 99.2554 279.976 98.5653 277.626 97.7453C272.206 95.8353 268.336 93.2653 265.976 90.0453C263.636 86.8153 262.466 82.7754 262.466 77.9154C262.466 71.3654 265.246 66.0654 270.776 62.0054C276.326 57.9454 283.246 55.9254 291.546 55.9254C295.716 55.9254 299.856 56.3454 303.986 57.1954C308.096 58.0454 311.786 59.1854 315.046 60.6254V76.6254H313.506C310.906 74.4154 307.746 72.5454 304.006 71.0254C300.266 69.4954 296.426 68.7254 292.486 68.7254C290.966 68.7254 289.586 68.8353 288.366 69.0453C287.146 69.2653 285.866 69.6854 284.516 70.3154C283.426 70.7954 282.476 71.5354 281.696 72.5154C280.896 73.4954 280.496 74.5854 280.496 75.8054C280.496 77.5854 281.126 78.9954 282.386 80.0554C283.656 81.0954 286.106 82.0454 289.736 82.8954C292.076 83.4254 294.346 83.9353 296.526 84.4353C298.696 84.9453 301.016 85.6254 303.496 86.5054C308.346 88.2554 311.956 90.6154 314.316 93.5854C316.676 96.5354 317.866 100.455 317.866 105.305C317.866 112.275 315.136 117.855 309.666 122.095C304.206 126.315 296.826 128.435 287.516 128.435C282.176 128.435 277.466 127.925 273.406 126.875C269.346 125.845 265.586 124.565 262.106 123.025V106.385H262.076ZM206.776 65.6354C212.976 59.0354 221.306 55.7354 231.796 55.7354C234.576 55.7354 237.096 55.8954 239.306 56.2054C241.536 56.5254 243.656 56.9554 245.696 57.5254C247.306 58.0054 249.036 58.6453 250.916 59.4653C252.796 60.2653 254.316 60.9754 255.476 61.5654V78.2754H253.696C252.846 77.5254 251.786 76.6354 250.506 75.5954C249.206 74.5554 247.766 73.5254 246.126 72.5254C244.506 71.5254 242.706 70.6754 240.746 69.9754C238.786 69.2854 236.736 68.9353 234.596 68.9353C232.056 68.9353 229.736 69.3354 227.616 70.1354C225.516 70.9254 223.496 72.3154 221.586 74.2754C219.836 76.0554 218.396 78.4854 217.286 81.5154C216.176 84.5454 215.616 88.1254 215.616 92.2554C215.616 96.6054 216.196 100.265 217.346 103.215C218.516 106.165 220.026 108.555 221.916 110.375C223.726 112.125 225.756 113.395 227.996 114.175C230.226 114.965 232.476 115.345 234.686 115.345C237.016 115.345 239.216 114.955 241.316 114.205C243.416 113.455 245.196 112.595 246.626 111.665C248.196 110.715 249.576 109.735 250.766 108.745C251.956 107.755 252.996 106.865 253.866 106.095H255.476V122.535C254.196 123.125 252.696 123.805 251.016 124.575C249.326 125.345 247.586 125.985 245.796 126.515C243.596 127.175 241.556 127.675 239.646 128.025C237.736 128.365 235.106 128.535 231.746 128.535C221.246 128.535 212.916 125.355 206.756 119.005C200.576 112.645 197.496 103.725 197.496 92.2054C197.506 81.0954 200.596 72.2454 206.776 65.6354ZM138.256 57.1754H165.466C169.506 57.1754 172.996 57.5454 175.926 58.2854C178.866 59.0254 181.516 60.1754 183.906 61.7854C186.536 63.5354 188.576 65.8754 190.026 68.8154C191.466 71.7354 192.196 75.2154 192.196 79.2654C192.196 82.5254 191.686 85.6253 190.636 88.5753C189.606 91.5153 188.116 93.9854 186.176 95.9554C184.986 97.1754 183.676 98.2954 182.246 99.3454C180.816 100.375 179.246 101.255 177.526 101.975C175.796 102.685 173.926 103.255 171.906 103.665C169.886 104.065 167.616 104.275 165.096 104.275H155.886V127.195H138.266V57.1754H138.256ZM132.886 162.275C191.886 94.6753 238.646 192.745 321.376 140.835C248.046 209.705 205.216 113.585 132.886 162.275Z" fill="#005395"/>
<path d="M161.786 91.1254C163.266 91.0954 164.546 90.9854 165.636 90.8054C166.566 90.6454 167.566 90.3354 168.626 89.8854C169.666 89.4154 170.476 88.9254 171.036 88.3654C172.226 87.2054 173.026 86.0054 173.456 84.7554C173.876 83.5054 174.086 81.8154 174.086 79.6954C174.086 77.7254 173.616 76.0354 172.676 74.6054C171.746 73.1954 170.626 72.2154 169.306 71.6854C167.656 70.9654 166.066 70.5454 164.536 70.4354C163.026 70.3254 160.976 70.2754 158.376 70.2754H155.886V91.1754H157.106C158.756 91.1754 160.326 91.1554 161.786 91.1254Z" fill="#005395"/>
<path fill-rule="evenodd" clip-rule="evenodd" d="M22.0963 251.686C18.9463 251.686 16.0363 251.156 13.3963 250.106C10.7563 249.046 8.46633 247.466 6.54633 245.376C4.62633 243.286 3.12632 240.666 2.07632 237.536C1.01632 234.406 0.486328 230.816 0.486328 226.756C0.486328 222.726 0.996321 219.206 2.02632 216.216C3.05632 213.216 4.54633 210.596 6.51633 208.376C8.43633 206.216 10.7163 204.576 13.3563 203.446C15.9863 202.306 18.9363 201.746 22.1963 201.746C23.8063 201.746 25.3363 201.866 26.7463 202.096C28.1563 202.336 29.4663 202.636 30.6763 203.006C31.7063 203.326 32.7763 203.736 33.8563 204.226C34.9463 204.716 36.0263 205.246 37.0863 205.826V213.556H36.5663C36.0063 213.046 35.2863 212.426 34.3963 211.706C33.5163 210.986 32.4263 210.276 31.1563 209.576C29.9263 208.926 28.5963 208.386 27.1463 207.966C25.6963 207.536 24.0263 207.326 22.1263 207.326C20.0863 207.326 18.1363 207.746 16.2963 208.586C14.4663 209.426 12.8463 210.666 11.4763 212.286C10.1163 213.926 9.05632 215.976 8.30632 218.456C7.54632 220.926 7.16632 223.706 7.16632 226.806C7.16632 230.096 7.56632 232.926 8.35632 235.306C9.16632 237.686 10.2463 239.686 11.6263 241.316C12.9663 242.906 14.5463 244.116 16.3563 244.916C18.1663 245.726 20.0963 246.116 22.1163 246.116C23.9763 246.116 25.6863 245.896 27.2663 245.446C28.8363 244.996 30.2363 244.416 31.4663 243.736C32.6563 243.066 33.6763 242.376 34.5463 241.676C35.4063 240.976 36.0863 240.386 36.5763 239.886H37.0663V247.536C36.0063 248.036 35.0063 248.506 34.0663 248.976C33.1263 249.426 31.9863 249.876 30.6463 250.306C29.2463 250.756 27.9363 251.106 26.7363 251.346C25.5763 251.566 24.0163 251.686 22.0963 251.686ZM58.2963 251.626C52.5263 251.626 48.0363 250.006 44.8463 246.766C41.6563 243.526 40.0563 238.916 40.0563 232.946C40.0563 227.066 41.6063 222.386 44.6963 218.906C47.7763 215.426 51.8263 213.686 56.8263 213.686C59.0863 213.686 61.0663 214.006 62.7963 214.656C64.5363 215.296 66.0463 216.316 67.3363 217.696C68.6363 219.076 69.6363 220.756 70.3163 222.756C71.0163 224.746 71.3563 227.186 71.3563 230.076V233.376H46.2163C46.2163 237.566 47.2763 240.766 49.3963 242.986C51.5163 245.206 54.4563 246.316 58.2063 246.316C59.5463 246.316 60.8663 246.166 62.1563 245.866C63.4463 245.566 64.6063 245.166 65.6463 244.696C66.7563 244.196 67.6863 243.726 68.4463 243.256C69.2063 242.796 69.8363 242.346 70.3363 241.936H70.6863V248.576C69.9663 248.856 69.0863 249.206 68.0263 249.626C66.9663 250.046 66.0163 250.376 65.1763 250.606C63.9863 250.926 62.9063 251.176 61.9463 251.356C60.9863 251.536 59.7663 251.626 58.2963 251.626ZM65.4563 228.746C65.4163 227.106 65.2163 225.696 64.8663 224.516C64.5263 223.336 64.0163 222.326 63.3763 221.506C62.6563 220.606 61.7363 219.916 60.6263 219.436C59.5063 218.956 58.1263 218.726 56.4663 218.726C54.8463 218.726 53.4563 218.966 52.3163 219.456C51.1763 219.946 50.1363 220.636 49.2063 221.566C48.2863 222.516 47.6063 223.566 47.1163 224.716C46.6363 225.866 46.3463 227.216 46.2063 228.736H65.4563V228.746ZM105.936 250.826H99.8363V230.236C99.8363 228.576 99.7563 227.026 99.5963 225.596C99.4263 224.156 99.1363 223.006 98.6763 222.146C98.1763 221.236 97.4863 220.566 96.5963 220.126C95.7163 219.686 94.5063 219.466 92.9663 219.466C91.4663 219.466 89.9063 219.876 88.2863 220.686C86.6863 221.496 85.1163 222.546 83.5763 223.836V250.836H77.4763V214.696H83.5763V218.716C85.3863 217.096 87.1763 215.856 88.9463 214.996C90.7263 214.136 92.5963 213.706 94.5463 213.706C98.1163 213.706 100.906 214.876 102.906 217.226C104.916 219.556 105.926 222.956 105.926 227.396V250.826H105.936ZM125.426 251.556C122.096 251.556 119.506 250.616 117.646 248.726C115.786 246.846 114.856 243.866 114.856 239.796V219.786H110.746V214.676H114.856V204.266H120.956V214.676H132.166V219.786H120.956V236.966C120.956 238.796 120.986 240.216 121.056 241.196C121.126 242.186 121.366 243.116 121.796 243.986C122.156 244.736 122.756 245.316 123.576 245.686C124.406 246.066 125.506 246.246 126.916 246.246C127.906 246.246 128.876 246.096 129.806 245.796C130.736 245.496 131.406 245.256 131.816 245.056H132.166V250.516C131.016 250.846 129.856 251.106 128.686 251.276C127.506 251.466 126.426 251.556 125.426 251.556ZM155.816 221.246H155.496C155.046 221.126 154.556 221.056 154.056 221.026C153.546 220.996 152.936 220.986 152.226 220.986C150.586 220.986 148.966 221.336 147.336 222.046C145.726 222.766 144.196 223.816 142.746 225.216V250.826H136.646V214.686H142.746V220.056C144.966 218.086 146.906 216.706 148.546 215.896C150.196 215.086 151.796 214.676 153.356 214.676C153.976 214.676 154.446 214.686 154.756 214.716C155.066 214.746 155.416 214.806 155.806 214.866V221.246H155.816ZM179.566 241.906V231.926C178.126 232.056 176.306 232.236 174.106 232.456C171.896 232.676 170.116 232.996 168.766 233.406C167.156 233.906 165.816 234.656 164.766 235.676C163.716 236.696 163.186 238.116 163.186 239.946C163.186 242.006 163.776 243.556 164.936 244.606C166.096 245.656 167.786 246.186 170.016 246.186C171.936 246.186 173.666 245.776 175.216 244.946C176.766 244.126 178.216 243.106 179.566 241.906ZM179.566 246.956C179.066 247.336 178.406 247.836 177.576 248.506C176.746 249.156 175.956 249.686 175.176 250.076C174.096 250.636 173.056 251.066 172.046 251.366C171.056 251.666 169.646 251.816 167.836 251.816C166.346 251.816 164.936 251.536 163.606 250.976C162.266 250.416 161.096 249.626 160.076 248.606C159.116 247.616 158.336 246.386 157.756 244.926C157.166 243.476 156.886 241.946 156.886 240.316C156.886 237.806 157.416 235.686 158.466 233.916C159.526 232.156 161.196 230.766 163.476 229.726C165.496 228.796 167.896 228.156 170.646 227.806C173.406 227.456 176.386 227.186 179.566 227.006V225.826C179.566 224.386 179.346 223.226 178.916 222.346C178.486 221.466 177.886 220.776 177.116 220.306C176.336 219.796 175.396 219.466 174.266 219.296C173.146 219.126 171.986 219.056 170.806 219.056C169.406 219.056 167.756 219.266 165.856 219.696C163.966 220.126 162.066 220.756 160.166 221.576H159.816V215.396C160.946 215.076 162.546 214.726 164.646 214.336C166.746 213.946 168.816 213.746 170.866 213.746C173.356 213.746 175.446 213.946 177.156 214.336C178.856 214.726 180.396 215.416 181.756 216.436C183.076 217.426 184.056 218.726 184.706 220.296C185.356 221.876 185.676 223.796 185.676 226.066V250.826H179.576V246.956H179.566ZM200.516 250.826H194.416V200.426H200.516V250.826ZM225.386 250.826L241.656 202.616H249.566L265.836 250.826H259.046L254.686 237.426H236.226L231.886 250.826H225.386ZM252.886 231.856L245.456 209.216L238.046 231.856H252.886ZM310.986 250.826V229.916C310.986 228.256 310.916 226.726 310.786 225.306C310.666 223.896 310.386 222.786 309.976 221.976C309.546 221.116 308.926 220.486 308.126 220.076C307.326 219.666 306.246 219.456 304.886 219.456C303.626 219.456 302.286 219.846 300.856 220.616C299.416 221.376 297.926 222.496 296.386 223.956C296.406 224.316 296.446 224.756 296.476 225.256C296.506 225.766 296.516 226.366 296.516 227.056V250.816H290.416V229.906C290.416 228.246 290.346 226.716 290.216 225.296C290.096 223.886 289.816 222.776 289.406 221.966C288.976 221.106 288.356 220.476 287.556 220.066C286.756 219.656 285.676 219.446 284.316 219.446C282.986 219.446 281.606 219.856 280.156 220.686C278.706 221.516 277.306 222.566 275.946 223.846V250.816H269.846V214.676H275.946V218.696C277.546 217.106 279.126 215.866 280.696 214.996C282.266 214.126 283.986 213.676 285.866 213.676C287.996 213.676 289.896 214.166 291.556 215.136C293.206 216.106 294.466 217.696 295.326 219.926C297.176 217.886 298.966 216.326 300.706 215.276C302.466 214.216 304.366 213.686 306.416 213.686C307.976 213.686 309.386 213.926 310.656 214.416C311.926 214.906 313.046 215.676 313.996 216.756C314.966 217.866 315.716 219.216 316.246 220.866C316.776 222.506 317.046 224.556 317.046 227.046V250.826H310.986ZM341.276 251.626C335.506 251.626 331.016 250.006 327.826 246.766C324.636 243.526 323.036 238.916 323.036 232.946C323.036 227.066 324.586 222.386 327.676 218.906C330.756 215.426 334.806 213.686 339.806 213.686C342.056 213.686 344.046 214.006 345.776 214.656C347.516 215.296 349.026 216.316 350.316 217.696C351.616 219.076 352.616 220.756 353.296 222.756C353.996 224.746 354.336 227.186 354.336 230.076V233.376H329.196C329.196 237.566 330.256 240.766 332.376 242.986C334.496 245.206 337.436 246.316 341.186 246.316C342.526 246.316 343.846 246.166 345.136 245.866C346.426 245.566 347.586 245.166 348.626 244.696C349.736 244.196 350.666 243.726 351.426 243.256C352.186 242.796 352.816 242.346 353.316 241.936H353.666V248.576C352.946 248.856 352.066 249.206 351.006 249.626C349.946 250.046 348.996 250.376 348.156 250.606C346.966 250.926 345.886 251.176 344.926 251.356C343.976 251.536 342.746 251.626 341.276 251.626ZM348.446 228.746C348.406 227.106 348.206 225.696 347.856 224.516C347.516 223.336 347.006 222.326 346.366 221.506C345.646 220.606 344.726 219.916 343.616 219.436C342.496 218.956 341.116 218.726 339.456 218.726C337.836 218.726 336.446 218.966 335.306 219.456C334.166 219.946 333.126 220.636 332.196 221.566C331.276 222.516 330.596 223.566 330.106 224.716C329.626 225.866 329.336 227.216 329.196 228.736H348.446V228.746ZM379.636 221.246H379.316C378.866 221.126 378.376 221.056 377.876 221.026C377.366 220.996 376.756 220.986 376.046 220.986C374.406 220.986 372.786 221.336 371.156 222.046C369.546 222.766 368.016 223.816 366.566 225.216V250.826H360.466V214.686H366.566V220.056C368.786 218.086 370.726 216.706 372.366 215.896C374.016 215.086 375.616 214.676 377.176 214.676C377.796 214.676 378.266 214.686 378.576 214.716C378.886 214.746 379.236 214.806 379.626 214.866V221.246H379.636ZM390.666 250.826H384.566V214.686H390.666V250.826ZM391.126 208.576H384.166V202.276H391.126V208.576ZM413.886 251.626C411.396 251.626 409.126 251.236 407.046 250.476C404.976 249.716 403.186 248.556 401.696 246.996C400.206 245.446 399.056 243.496 398.226 241.126C397.406 238.756 396.996 235.986 396.996 232.796C396.996 229.626 397.426 226.886 398.276 224.576C399.126 222.266 400.266 220.336 401.696 218.746C403.126 217.176 404.906 215.956 407.036 215.106C409.156 214.256 411.446 213.826 413.886 213.826C415.876 213.826 417.796 214.106 419.646 214.666C421.496 215.226 423.136 215.886 424.586 216.616V223.446H424.236C423.806 223.086 423.246 222.666 422.556 222.186C421.886 221.726 421.056 221.236 420.076 220.736C419.236 220.316 418.246 219.936 417.096 219.616C415.946 219.296 414.836 219.126 413.776 219.126C410.626 219.126 408.086 220.316 406.176 222.696C404.266 225.076 403.306 228.436 403.306 232.786C403.306 237.046 404.236 240.366 406.076 242.746C407.926 245.126 410.496 246.316 413.776 246.316C415.766 246.316 417.666 245.906 419.456 245.086C421.256 244.276 422.836 243.216 424.236 241.936H424.586V248.766C423.976 249.056 423.226 249.386 422.316 249.786C421.406 250.196 420.576 250.486 419.856 250.686C418.816 250.986 417.886 251.216 417.066 251.386C416.246 251.546 415.186 251.626 413.886 251.626ZM450.286 241.906V231.926C448.846 232.056 447.026 232.236 444.826 232.456C442.616 232.676 440.836 232.996 439.486 233.406C437.876 233.906 436.536 234.656 435.486 235.676C434.436 236.696 433.906 238.116 433.906 239.946C433.906 242.006 434.496 243.556 435.656 244.606C436.816 245.656 438.506 246.186 440.736 246.186C442.656 246.186 444.386 245.776 445.926 244.946C447.486 244.126 448.936 243.106 450.286 241.906ZM450.286 246.956C449.786 247.336 449.126 247.836 448.296 248.506C447.466 249.156 446.676 249.686 445.896 250.076C444.816 250.636 443.776 251.066 442.766 251.366C441.776 251.666 440.366 251.816 438.556 251.816C437.066 251.816 435.656 251.536 434.326 250.976C432.986 250.416 431.816 249.626 430.796 248.606C429.836 247.616 429.056 246.386 428.476 244.926C427.886 243.476 427.606 241.946 427.606 240.316C427.606 237.806 428.136 235.686 429.186 233.916C430.246 232.156 431.916 230.766 434.196 229.726C436.216 228.796 438.616 228.156 441.366 227.806C444.126 227.456 447.106 227.186 450.286 227.006V225.826C450.286 224.386 450.066 223.226 449.636 222.346C449.206 221.466 448.606 220.776 447.836 220.306C447.056 219.796 446.116 219.466 444.986 219.296C443.866 219.126 442.706 219.056 441.526 219.056C440.126 219.056 438.476 219.266 436.576 219.696C434.686 220.126 432.786 220.756 430.886 221.576H430.536V215.396C431.666 215.076 433.266 214.726 435.366 214.336C437.466 213.946 439.536 213.746 441.586 213.746C444.076 213.746 446.166 213.946 447.876 214.336C449.576 214.726 451.116 215.416 452.476 216.436C453.796 217.426 454.776 218.726 455.426 220.296C456.076 221.876 456.396 223.796 456.396 226.066V250.826H450.296V246.956H450.286Z" fill="#005395"/>
<path fill-rule="evenodd" clip-rule="evenodd" d="M243.797 286.635H241.047L232.857 270.645V286.635H230.557V268.095H234.047L241.497 282.775V268.095H243.797V286.635ZM247.587 286.635V268.095H259.197V270.285H250.067V275.365H258.587V277.555H250.067V284.445H259.197V286.635H247.587ZM268.367 287.015C267.277 287.015 266.327 286.875 265.507 286.585C264.697 286.305 264.007 285.875 263.427 285.305C262.777 284.655 262.317 283.885 262.057 282.975C261.787 282.075 261.657 280.965 261.657 279.645V268.075H264.127V279.615C264.127 280.465 264.187 281.185 264.287 281.775C264.397 282.355 264.607 282.885 264.917 283.345C265.247 283.845 265.697 284.225 266.267 284.475C266.837 284.735 267.527 284.865 268.347 284.865C269.117 284.865 269.797 284.735 270.397 284.475C270.997 284.215 271.457 283.845 271.787 283.345C272.097 282.875 272.297 282.355 272.417 281.785C272.527 281.215 272.587 280.515 272.587 279.685V268.085H275.057V279.655C275.057 280.945 274.927 282.045 274.667 282.965C274.407 283.885 273.947 284.665 273.287 285.305C272.697 285.875 272.007 286.305 271.227 286.585C270.467 286.875 269.507 287.015 268.367 287.015ZM282.957 286.635V270.285H276.737V268.095H291.657V270.285H285.437V286.635H282.957ZM307.877 286.635H304.677L298.807 279.265H295.997V286.635H293.527V268.095H298.307C299.367 268.095 300.257 268.155 300.977 268.265C301.697 268.375 302.377 268.655 303.027 269.075C303.677 269.495 304.187 270.025 304.567 270.685C304.947 271.345 305.137 272.155 305.137 273.125C305.137 274.485 304.797 275.625 304.107 276.535C303.417 277.445 302.477 278.125 301.297 278.565L307.877 286.635ZM302.547 273.315C302.547 272.775 302.457 272.295 302.267 271.885C302.077 271.465 301.787 271.125 301.387 270.865C301.037 270.635 300.627 270.465 300.167 270.375C299.707 270.275 299.127 270.235 298.437 270.235H295.997V277.195H298.157C298.867 277.195 299.497 277.135 300.057 277.005C300.617 276.885 301.107 276.625 301.497 276.235C301.857 275.885 302.117 275.475 302.287 274.995C302.457 274.515 302.547 273.955 302.547 273.315ZM307.337 286.635H309.837L311.507 281.485H318.607L320.277 286.635H322.887L316.627 268.095H313.587L307.337 286.635ZM317.907 279.335H312.207L315.057 270.625L317.907 279.335ZM335.407 286.635H324.647V268.095H327.117V284.445H335.407V286.635ZM358.537 286.635H355.787L347.597 270.645V286.635H345.297V268.095H348.787L356.237 282.775V268.095H358.537V286.635ZM365.797 286.635H362.817V283.085H365.797V286.635ZM383.487 268.085L377.107 286.625H374.437L368.057 268.085H370.667L375.827 283.515L380.977 268.085H383.487ZM385.297 286.635V283.085H382.317V286.635H385.297ZM402.677 270.225C403.387 271.035 403.927 272.045 404.327 273.245C404.717 274.445 404.917 275.825 404.917 277.365C404.917 278.875 404.727 280.225 404.347 281.435C403.967 282.645 403.407 283.665 402.687 284.485C401.927 285.345 401.047 285.985 400.037 286.395C399.027 286.805 397.917 287.015 396.707 287.015C395.447 287.015 394.317 286.805 393.317 286.385C392.307 285.955 391.447 285.335 390.717 284.495C390.007 283.675 389.457 282.655 389.067 281.455C388.687 280.255 388.497 278.895 388.497 277.365C388.497 275.805 388.687 274.435 389.077 273.255C389.467 272.075 390.017 271.065 390.727 270.215C391.437 269.395 392.307 268.765 393.317 268.345C394.327 267.915 395.457 267.705 396.707 267.705C397.967 267.705 399.107 267.925 400.117 268.365C401.117 268.805 401.977 269.425 402.677 270.225ZM402.327 277.365C402.327 276.145 402.197 275.055 401.927 274.115C401.667 273.165 401.287 272.385 400.807 271.765C400.317 271.125 399.727 270.655 399.027 270.335C398.337 270.015 397.557 269.855 396.697 269.855C395.797 269.855 395.017 270.015 394.347 270.325C393.677 270.635 393.087 271.115 392.567 271.775C392.077 272.405 391.707 273.195 391.437 274.145C391.177 275.105 391.047 276.175 391.047 277.375C391.047 279.805 391.557 281.665 392.577 282.945C393.597 284.235 394.967 284.875 396.697 284.875C398.417 284.875 399.787 284.225 400.797 282.945C401.817 281.645 402.327 279.795 402.327 277.365ZM410.707 286.635H407.727V283.085H410.707V286.635ZM422.197 286.965C420.987 286.965 419.867 286.765 418.847 286.355C417.827 285.945 416.947 285.335 416.207 284.535C415.467 283.735 414.897 282.725 414.487 281.525C414.077 280.325 413.877 278.945 413.877 277.385C413.877 275.835 414.077 274.485 414.467 273.325C414.867 272.175 415.437 271.165 416.197 270.315C416.937 269.485 417.817 268.855 418.827 268.415C419.837 267.975 420.977 267.765 422.227 267.765C422.847 267.765 423.437 267.815 423.977 267.905C424.517 267.995 425.027 268.115 425.487 268.255C425.887 268.375 426.297 268.535 426.707 268.725C427.127 268.915 427.537 269.115 427.947 269.345V272.315H427.747C427.527 272.115 427.257 271.885 426.917 271.605C426.577 271.325 426.157 271.055 425.667 270.785C425.197 270.535 424.677 270.325 424.127 270.165C423.567 269.995 422.927 269.915 422.197 269.915C421.407 269.915 420.667 270.075 419.957 270.395C419.247 270.715 418.627 271.195 418.107 271.815C417.587 272.445 417.177 273.235 416.887 274.185C416.597 275.135 416.447 276.205 416.447 277.395C416.447 278.665 416.597 279.755 416.907 280.665C417.217 281.575 417.637 282.345 418.167 282.975C418.677 283.585 419.287 284.055 419.987 284.365C420.687 284.675 421.427 284.825 422.197 284.825C422.907 284.825 423.567 284.735 424.177 284.565C424.777 284.395 425.317 284.165 425.797 283.905C426.257 283.645 426.647 283.385 426.987 283.115C427.317 282.845 427.577 282.615 427.767 282.425H427.957V285.365C427.547 285.555 427.167 285.735 426.807 285.915C426.447 286.085 426.007 286.255 425.497 286.425C424.957 286.595 424.457 286.735 423.997 286.825C423.537 286.915 422.937 286.965 422.197 286.965ZM433.747 286.635H430.767V283.085H433.747V286.635ZM445.237 286.965C444.027 286.965 442.907 286.765 441.887 286.355C440.867 285.945 439.987 285.335 439.247 284.535C438.507 283.735 437.937 282.725 437.527 281.525C437.117 280.325 436.917 278.945 436.917 277.385C436.917 275.835 437.117 274.485 437.507 273.325C437.907 272.175 438.477 271.165 439.237 270.315C439.977 269.485 440.857 268.855 441.867 268.415C442.877 267.975 444.017 267.765 445.267 267.765C445.887 267.765 446.477 267.815 447.017 267.905C447.557 267.995 448.067 268.115 448.527 268.255C448.927 268.375 449.337 268.535 449.747 268.725C450.167 268.915 450.577 269.115 450.987 269.345V272.315H450.787C450.567 272.115 450.297 271.885 449.957 271.605C449.617 271.325 449.197 271.055 448.707 270.785C448.237 270.535 447.717 270.325 447.167 270.165C446.607 269.995 445.967 269.915 445.237 269.915C444.447 269.915 443.707 270.075 442.997 270.395C442.287 270.715 441.667 271.195 441.147 271.815C440.627 272.445 440.217 273.235 439.927 274.185C439.637 275.135 439.487 276.205 439.487 277.395C439.487 278.665 439.637 279.755 439.947 280.665C440.257 281.575 440.677 282.345 441.207 282.975C441.717 283.585 442.327 284.055 443.027 284.365C443.727 284.675 444.467 284.825 445.237 284.825C445.947 284.825 446.607 284.735 447.217 284.565C447.817 284.395 448.357 284.165 448.837 283.905C449.297 283.645 449.687 283.385 450.027 283.115C450.357 282.845 450.617 282.615 450.807 282.425H450.997V285.365C450.587 285.555 450.207 285.735 449.847 285.915C449.487 286.085 449.047 286.255 448.537 286.425C447.997 286.595 447.497 286.735 447.037 286.825C446.577 286.915 445.977 286.965 445.237 286.965ZM456.787 286.635H453.807V283.085H456.787V286.635Z" fill="#005395"/>
<path fill-rule="evenodd" clip-rule="evenodd" d="M307.346 150.395C242.376 192.545 203.686 121.495 142.696 154.785C197.086 114.085 233.996 184.575 307.346 150.395Z" fill="#E30613"/>
</svg>
