<?xml version="1.0" encoding="utf-8"?>
<!-- Generator: Adobe Illustrator 16.0.0, SVG Export Plug-In . SVG Version: 6.00 Build 0)  -->
<!DOCTYPE svg PUBLIC "-//W3C//DTD SVG 1.1//EN" "http://www.w3.org/Graphics/SVG/1.1/DTD/svg11.dtd">
<svg version="1.1" id="Layer_1" xmlns="http://www.w3.org/2000/svg" xmlns:xlink="http://www.w3.org/1999/xlink" x="0px" y="0px"
	 width="484.667px" height="171.333px" viewBox="0 0 484.667 171.333" enable-background="new 0 0 484.667 171.333"
	 xml:space="preserve">
<g>
	<path fill="#27235D" d="M88.987,121.999L56.073,76.591L40.128,73.42v46.437c0,1.43,0.341,2.562,1.027,3.403
		c0.683,0.839,1.615,1.445,2.796,1.818l13.362,3.076h36.285c-0.203-0.245-0.406-0.486-0.602-0.747
		C91.878,125.917,90.542,124.114,88.987,121.999z"/>
	<path fill="#27235D" d="M18.217,11.878l-0.394-0.101c-5.034,2.88-8.48,8.677-8.48,15.372v83.69c0,6.165,2.927,11.564,7.322,14.631
		l1.552-0.392c1.117-0.313,2.066-0.918,2.843-1.818c0.776-0.902,1.167-2.035,1.167-3.403V17.008c0-1.368-0.391-2.485-1.167-3.358
		C20.283,12.781,19.334,12.19,18.217,11.878z"/>
	<path fill="#27235D" d="M47.261,66.753c1.46,0.092,2.89,0.171,4.288,0.232c1.399,0.064,2.565,0.095,3.499,0.095
		c4.91,0,9.183-0.778,12.819-2.333c3.638-1.552,6.651-3.606,9.044-6.155c2.394-2.547,4.181-5.485,5.363-8.809
		c1.18-3.324,1.772-6.792,1.772-10.398c0-4.849-0.686-9.011-2.053-12.495c-1.368-3.48-3.356-6.339-5.967-8.58
		c-2.611-2.237-5.828-3.899-9.651-4.986c-3.823-1.087-8.222-1.632-13.194-1.632H40.128V65.96c0.684,0.187,1.679,0.343,2.984,0.465
		C44.417,66.551,45.8,66.662,47.261,66.753z"/>
	<path fill="#27235D" d="M141.248,88.718c-1.438-1.533-3.197-2.77-5.277-3.706c-2.08-0.934-4.459-1.402-7.141-1.402
		c-3.042,0-5.794,0.609-8.25,1.821c-1.511,0.747-2.867,1.668-4.103,2.728V27.149c0-9.562-7.019-17.315-15.678-17.315H88.385
		c2.119,1.169,3.982,2.452,5.545,3.863c2.299,2.084,4.132,4.337,5.5,6.762c1.367,2.424,2.315,4.943,2.843,7.554
		c0.528,2.611,0.793,5.222,0.793,7.83c0,5.347-0.949,10.104-2.844,14.267c-1.897,4.166-4.305,7.741-7.227,10.725
		c-2.923,2.981-6.106,5.406-9.556,7.273c-3.451,1.864-6.73,3.168-9.837,3.915l34.966,46.154c0.433,0.624,1.025,1.322,1.771,2.1
		c0.362,0.377,0.739,0.71,1.109,1.063l-0.027,0.016c5.378,6.51,15.838,6.776,15.838,6.776l-0.096-0.059
		c0.455,0.024,0.906,0.059,1.372,0.059c1.76,0,3.462-0.202,5.112-0.606c1.647-0.403,3.196-0.937,4.648-1.592
		c1.452-0.654,2.792-1.396,4.021-2.219c1.228-0.823,2.303-1.656,3.225-2.494v-3.686h-0.755c-0.614,0.505-1.361,1.056-2.241,1.656
		c-0.878,0.6-1.884,1.156-3.015,1.674c-1.129,0.518-2.381,0.958-3.748,1.319c-1.368,0.364-2.848,0.545-4.439,0.545
		c-4.748,0-8.356-1.604-10.826-4.814c-2.47-3.211-3.707-7.86-3.707-13.949h28.521c0.028-0.251,0.07-0.538,0.125-0.859
		c0.058-0.318,0.092-0.649,0.107-0.982c0.012-0.337,0.028-0.665,0.04-0.986c0.015-0.318,0.021-0.605,0.021-0.856
		c0-2.121-0.37-4.196-1.11-6.22C143.775,92.036,142.687,90.255,141.248,88.718z M117.02,100.573
		c0.223-2.094,0.641-3.974,1.256-5.636c0.614-1.658,1.41-3.076,2.387-4.248c0.977-1.176,2.107-2.075,3.392-2.703
		c1.286-0.627,2.724-0.942,4.314-0.942c1.703,0,3.134,0.349,4.293,1.047c1.158,0.697,2.109,1.662,2.848,2.89
		c0.739,1.23,1.27,2.669,1.591,4.315c0.32,1.646,0.482,3.407,0.482,5.277H117.02z"/>
	<path fill="#27235D" d="M174.941,83.946c-1.426-0.224-2.865-0.337-4.316-0.337c-2.485,0-4.753,0.386-6.804,1.151
		c-2.054,0.768-3.811,1.803-5.277,3.101c-1.466,1.298-2.605,2.813-3.413,4.545c-0.811,1.729-1.215,3.572-1.215,5.528
		c0,1.619,0.196,3.058,0.585,4.313c0.392,1.255,0.921,2.372,1.591,3.352c0.67,0.977,1.433,1.827,2.284,2.553
		c0.851,0.729,1.751,1.356,2.703,1.886v0.168c-0.784,0.196-1.634,0.496-2.556,0.9s-1.766,0.928-2.535,1.57
		c-0.768,0.643-1.396,1.433-1.885,2.366c-0.487,0.937-0.731,2.047-0.731,3.33c0,1.145,0.223,2.157,0.67,3.036
		c0.447,0.878,1.004,1.641,1.674,2.283c0.67,0.643,1.405,1.166,2.201,1.57c0.792,0.404,1.54,0.704,2.24,0.9v0.208
		c-1.203,0.336-2.348,0.777-3.434,1.319c-1.09,0.544-2.054,1.221-2.893,2.032c-0.835,0.811-1.506,1.766-2.008,2.868
		c-0.505,1.104-0.756,2.394-0.756,3.875c0,1.76,0.456,3.303,1.362,4.628c0.906,1.325,2.186,2.448,3.832,3.37
		c1.647,0.921,3.594,1.612,5.843,2.075c2.247,0.459,4.711,0.691,7.392,0.691c3.098,0,6.008-0.397,8.732-1.193
		c2.721-0.796,5.087-1.907,7.098-3.33c2.011-1.424,3.594-3.129,4.754-5.112c1.157-1.98,1.738-4.159,1.738-6.531
		c0-1.286-0.239-2.584-0.713-3.896c-0.475-1.311-1.271-2.504-2.388-3.578c-1.117-1.078-2.589-1.941-4.417-2.599
		c-1.83-0.655-4.098-0.983-6.807-0.983h-14.157c-0.502-0.058-0.982-0.201-1.444-0.44c-0.459-0.235-0.857-0.545-1.194-0.921
		c-0.334-0.377-0.606-0.83-0.814-1.362c-0.211-0.529-0.315-1.102-0.315-1.717c0-0.558,0.11-1.09,0.333-1.592
		s0.523-0.943,0.903-1.319c0.376-0.377,0.787-0.677,1.233-0.9c0.447-0.224,0.894-0.361,1.341-0.419
		c0.392,0.113,0.845,0.229,1.362,0.354c0.517,0.129,1.059,0.227,1.631,0.294c0.572,0.07,1.166,0.126,1.781,0.169
		s1.228,0.064,1.843,0.064c2.596,0,4.907-0.35,6.933-1.051c2.023-0.694,3.725-1.68,5.109-2.95c1.38-1.271,2.437-2.764,3.162-4.481
		c0.726-1.717,1.09-3.596,1.09-5.635c0-0.949-0.107-1.87-0.315-2.764c-0.208-0.894-0.508-1.757-0.9-2.596
		c-0.392-0.839-0.878-1.646-1.466-2.431c-0.588-0.78-1.258-1.533-2.011-2.262v-0.165l11.393,2.011l0.713-5.111h-14.659
		C177.733,84.448,176.365,84.17,174.941,83.946z M161.685,127.291c0.573-0.389,1.111-0.655,1.613-0.793h13.694
		c1.479,0,2.758,0.224,3.832,0.668c1.074,0.446,1.947,1.007,2.617,1.677c0.67,0.671,1.166,1.43,1.487,2.28
		c0.322,0.854,0.481,1.684,0.481,2.495c0,1.757-0.41,3.26-1.234,4.502c-0.823,1.24-1.907,2.259-3.248,3.055
		c-1.34,0.796-2.847,1.378-4.521,1.739c-1.677,0.364-3.367,0.545-5.068,0.545c-0.784,0-1.641-0.056-2.578-0.169
		c-0.934-0.11-1.876-0.312-2.825-0.605c-0.949-0.294-1.87-0.665-2.764-1.111c-0.894-0.447-1.689-1.004-2.388-1.675
		c-0.698-0.67-1.252-1.466-1.656-2.387c-0.404-0.922-0.606-1.983-0.606-3.184s0.153-2.256,0.459-3.162
		c0.309-0.906,0.692-1.684,1.154-2.323C160.595,128.2,161.112,127.683,161.685,127.291z M177.996,102.33
		c-0.333,1.426-0.845,2.653-1.527,3.685c-0.686,1.035-1.537,1.837-2.556,2.409c-1.02,0.572-2.213,0.86-3.582,0.86
		c-1.282,0-2.442-0.278-3.474-0.839c-1.034-0.557-1.913-1.341-2.638-2.345c-0.729-1.007-1.286-2.219-1.677-3.646
		c-0.389-1.423-0.585-2.999-0.585-4.731c0-1.702,0.181-3.229,0.545-4.586c0.361-1.353,0.9-2.513,1.613-3.477
		c0.71-0.961,1.57-1.702,2.574-2.22c1.004-0.517,2.179-0.774,3.517-0.774c1.258,0,2.397,0.251,3.416,0.753
		c1.016,0.502,1.882,1.237,2.596,2.201c0.713,0.961,1.27,2.115,1.674,3.453c0.404,1.34,0.609,2.864,0.609,4.566
		S178.333,100.906,177.996,102.33z"/>
	<path fill="#27235D" d="M203.943,73.35c0.487,0.447,1.059,0.802,1.717,1.068c0.655,0.266,1.347,0.397,2.072,0.397
		c0.78,0,1.515-0.132,2.201-0.397c0.683-0.267,1.276-0.637,1.778-1.111s0.9-1.031,1.194-1.674c0.294-0.643,0.441-1.368,0.441-2.179
		c0-0.753-0.141-1.445-0.419-2.072c-0.279-0.627-0.67-1.166-1.172-1.613c-0.502-0.447-1.096-0.795-1.782-1.046
		c-0.682-0.251-1.429-0.377-2.24-0.377c-0.726,0-1.417,0.132-2.072,0.398c-0.658,0.267-1.23,0.627-1.717,1.09
		c-0.49,0.459-0.878,1.01-1.172,1.653c-0.293,0.643-0.44,1.341-0.44,2.094c0,0.784,0.147,1.494,0.44,2.136
		C203.064,72.357,203.453,72.902,203.943,73.35z"/>
	<path fill="#27235D" d="M212.611,122.749c-0.349-0.377-0.523-0.873-0.523-1.488V84.111l-14.573,2.639v1.886l4.732,1.634
		c0.781,0.279,1.359,0.634,1.739,1.068c0.376,0.432,0.563,0.998,0.563,1.696v28.227c0,0.588-0.174,1.068-0.523,1.445
		c-0.349,0.376-0.79,0.637-1.319,0.774l-5.36,1.301v2.345H219v-2.345l-5.109-1.301C213.386,123.37,212.96,123.125,212.611,122.749z"
		/>
	<path fill="#27235D" d="M250.955,124.76c1.592-1.16,2.868-2.604,3.832-4.337c0.961-1.729,1.444-3.753,1.444-6.073
		c0-1.533-0.244-2.874-0.734-4.019c-0.486-1.145-1.179-2.152-2.072-3.015c-0.894-0.867-1.968-1.613-3.226-2.241
		c-1.256-0.63-2.666-1.166-4.23-1.613c-0.447-0.141-0.961-0.294-1.549-0.462c-0.585-0.165-1.2-0.349-1.843-0.545
		c-0.643-0.192-1.298-0.389-1.968-0.584c-0.67-0.196-1.313-0.393-1.925-0.588c-0.979-0.307-1.873-0.649-2.681-1.025
		c-0.811-0.377-1.521-0.845-2.136-1.402c-0.615-0.56-1.09-1.242-1.423-2.054c-0.337-0.808-0.502-1.772-0.502-2.89
		s0.214-2.072,0.649-2.868c0.431-0.795,1.019-1.444,1.757-1.946c0.741-0.505,1.585-0.872,2.534-1.111
		c0.949-0.235,1.956-0.354,3.015-0.354c1.258,0,2.473,0.152,3.645,0.459c1.173,0.309,2.247,0.697,3.224,1.172
		c0.505,0.282,0.979,0.631,1.426,1.047c0.444,0.42,0.766,0.894,0.962,1.427l1.677,4.771h3.349l-0.459-11.099
		c-1.034-0.251-2.011-0.486-2.933-0.71c-0.921-0.224-1.864-0.419-2.828-0.588c-0.961-0.165-1.962-0.291-2.993-0.376
		c-1.035-0.083-2.164-0.126-3.392-0.126c-2.179,0-4.251,0.31-6.22,0.922c-1.968,0.615-3.707,1.487-5.216,2.616
		c-1.506,1.133-2.7,2.486-3.581,4.065c-0.878,1.576-1.319,3.3-1.319,5.17c0,1.368,0.196,2.653,0.588,3.854
		c0.392,1.203,0.955,2.299,1.696,3.287c0.741,0.992,1.625,1.843,2.66,2.556c1.032,0.714,2.204,1.265,3.517,1.653
		c1.258,0.392,2.599,0.789,4.022,1.193c1.423,0.407,2.874,0.817,4.355,1.236c1.09,0.279,2.088,0.594,2.993,0.943
		c0.909,0.349,1.69,0.789,2.348,1.319c0.655,0.529,1.173,1.172,1.549,1.925c0.377,0.756,0.566,1.678,0.566,2.768
		c0,1.282-0.26,2.372-0.777,3.266s-1.193,1.619-2.029,2.176c-0.839,0.561-1.787,0.958-2.85,1.194
		c-1.059,0.238-2.137,0.358-3.223,0.358c-0.756,0-1.537-0.064-2.348-0.19c-0.808-0.125-1.598-0.306-2.366-0.545
		c-0.768-0.235-1.484-0.486-2.155-0.753c-0.67-0.266-1.27-0.538-1.803-0.817c-0.502-0.278-1.01-0.643-1.527-1.089
		c-0.517-0.447-0.888-0.989-1.111-1.632l-1.466-4.609h-3.266v10.891c1.007,0.336,2.033,0.67,3.079,1.004
		c1.047,0.336,2.149,0.643,3.309,0.921c1.157,0.281,2.387,0.505,3.685,0.671c1.298,0.168,2.688,0.254,4.166,0.254
		c2.29,0,4.481-0.288,6.578-0.86C247.521,126.783,249.363,125.917,250.955,124.76z"/>
	<path fill="#27235D" d="M288.521,88.887l0.879-3.894h-14.952V72.722l-6.406,1.298l-0.337,5.571
		c-0.083,1.31-0.313,2.345-0.688,3.098c-0.377,0.753-0.895,1.347-1.553,1.781c-0.654,0.432-1.438,0.753-2.344,0.961
		c-0.906,0.211-1.935,0.44-3.08,0.691v2.765h6.829v30.489c0,1.368,0.285,2.583,0.857,3.646c0.572,1.062,1.355,1.946,2.348,2.659
		c0.988,0.711,2.148,1.256,3.474,1.632c1.325,0.377,2.758,0.566,4.295,0.566c1.227,0,2.433-0.153,3.621-0.459
		c1.188-0.31,2.276-0.671,3.269-1.09c0.988-0.419,1.861-0.845,2.617-1.279c0.753-0.432,1.325-0.774,1.717-1.025v-2.679h-0.839
		c-0.223,0.11-0.572,0.251-1.047,0.417c-0.474,0.168-0.985,0.314-1.527,0.44c-0.545,0.125-1.11,0.238-1.698,0.333
		c-0.585,0.102-1.103,0.147-1.549,0.147c-0.698,0-1.5-0.089-2.409-0.272c-0.906-0.181-1.772-0.475-2.596-0.879
		c-0.823-0.403-1.521-0.915-2.094-1.527c-0.572-0.615-0.859-1.368-0.859-2.262V88.887H288.521z"/>
	<path fill="#27235D" d="M320.706,91.17c0.349,0.235,0.578,0.508,0.691,0.817l1.298,3.392h3.309V85.327
		c-0.529-0.307-1.034-0.566-1.509-0.774c-0.475-0.209-0.977-0.383-1.506-0.523c-0.532-0.142-1.105-0.245-1.717-0.315
		c-0.615-0.067-1.298-0.104-2.055-0.104c-1.396,0-2.688,0.251-3.872,0.753c-1.188,0.505-2.311,1.188-3.373,2.054
		c-1.062,0.866-2.06,1.898-2.993,3.098c-0.937,1.203-1.864,2.485-2.785,3.854h-0.169v-9.421l-13.693,2.678v1.843l4.355,1.718
		c0.753,0.251,1.331,0.621,1.738,1.11c0.404,0.49,0.606,1.097,0.606,1.821v28.145c0,0.588-0.169,1.068-0.503,1.445
		c-0.336,0.376-0.768,0.637-1.297,0.774l-4.861,1.301v2.345h21.821v-2.345l-5.822-1.301c-0.529-0.11-0.961-0.355-1.298-0.731
		c-0.333-0.377-0.502-0.873-0.502-1.488V96.3c0.671-0.894,1.375-1.724,2.115-2.491c0.741-0.769,1.521-1.424,2.345-1.969
		s1.696-0.976,2.617-1.298c0.925-0.321,1.929-0.483,3.018-0.483c0.444,0,0.922,0.043,1.424,0.126
		c0.502,0.085,0.977,0.211,1.423,0.376C319.959,90.729,320.356,90.931,320.706,91.17z"/>
	<path fill="#27235D" d="M349.08,128.13c1.76,0,3.462-0.202,5.111-0.606c1.646-0.403,3.195-0.937,4.646-1.592
		c1.454-0.654,2.792-1.396,4.022-2.219c1.227-0.823,2.305-1.656,3.226-2.494v-3.686h-0.756c-0.612,0.505-1.359,1.056-2.24,1.656
		c-0.879,0.6-1.883,1.156-3.016,1.674c-1.129,0.518-2.381,0.958-3.749,1.319c-1.368,0.364-2.847,0.545-4.438,0.545
		c-4.747,0-8.356-1.604-10.826-4.814c-2.47-3.211-3.707-7.86-3.707-13.949h28.521c0.027-0.251,0.07-0.538,0.125-0.859
		c0.056-0.318,0.092-0.649,0.104-0.982c0.016-0.337,0.027-0.665,0.043-0.986c0.016-0.318,0.021-0.605,0.021-0.856
		c0-2.121-0.37-4.196-1.111-6.22c-0.737-2.023-1.827-3.805-3.266-5.342c-1.438-1.533-3.199-2.77-5.277-3.706
		c-2.081-0.934-4.46-1.402-7.141-1.402c-3.043,0-5.794,0.609-8.249,1.821c-2.458,1.215-4.552,2.844-6.284,4.879
		c-1.732,2.039-3.063,4.426-4.001,7.163c-0.934,2.736-1.401,5.625-1.401,8.668c0,3.575,0.489,6.725,1.466,9.445
		c0.977,2.725,2.339,5.021,4.083,6.891c1.745,1.87,3.817,3.281,6.22,4.229C343.607,127.655,346.233,128.13,349.08,128.13z
		 M338.82,94.938c0.615-1.658,1.411-3.076,2.387-4.248c0.977-1.176,2.109-2.075,3.392-2.703c1.286-0.627,2.725-0.942,4.316-0.942
		c1.701,0,3.131,0.349,4.291,1.047c1.16,0.697,2.108,1.662,2.85,2.89c0.737,1.23,1.271,2.669,1.589,4.315
		c0.321,1.646,0.483,3.407,0.483,5.277h-20.563C337.785,98.479,338.205,96.6,338.82,94.938z"/>
	<path fill="#27235D" d="M387.275,126.266c3.406,1.384,7.217,2.075,11.432,2.075c2.094,0,4.169-0.287,6.22-0.86
		c2.054-0.572,4.013-1.298,5.886-2.176c1.871-0.882,3.588-1.846,5.152-2.893c1.561-1.047,2.901-2.057,4.019-3.036v-4.564h-1.8
		c-0.812,0.726-1.684,1.5-2.617,2.323c-0.937,0.827-2.011,1.58-3.227,2.263c-1.215,0.686-2.595,1.258-4.146,1.717
		c-1.549,0.462-3.343,0.691-5.382,0.691c-3.098,0-5.827-0.545-8.188-1.634c-2.36-1.087-4.334-2.685-5.926-4.794
		c-1.592-2.108-2.785-4.698-3.581-7.771c-0.796-3.069-1.194-6.587-1.194-10.554c0-3.823,0.358-7.208,1.068-10.156
		c0.714-2.944,1.718-5.424,3.016-7.435c1.301-2.008,2.861-3.529,4.692-4.563c1.827-1.031,3.859-1.549,6.094-1.549
		c2.035,0,3.979,0.272,5.821,0.817c1.843,0.542,3.628,1.304,5.36,2.28c0.361,0.224,0.683,0.462,0.964,0.713
		c0.278,0.251,0.529,0.615,0.753,1.09l3.101,7.328h2.804V71.464c-1.059-0.392-2.378-0.78-3.958-1.172
		c-1.576-0.392-3.238-0.741-4.982-1.046c-1.745-0.306-3.483-0.557-5.216-0.753c-1.729-0.196-3.278-0.294-4.646-0.294
		c-2.626,0-5.13,0.327-7.518,0.982c-2.388,0.658-4.609,1.607-6.66,2.85c-2.051,1.243-3.909,2.749-5.569,4.524
		c-1.662,1.771-3.085,3.783-4.271,6.029c-1.188,2.247-2.103,4.698-2.745,7.35c-0.643,2.653-0.961,5.473-0.961,8.46
		c0,4.634,0.648,8.803,1.946,12.504c1.298,3.697,3.146,6.841,5.55,9.421C380.964,122.901,383.868,124.886,387.275,126.266z"/>
	<path fill="#27235D" d="M473.383,123.104c-0.502-0.195-0.985-0.514-1.444-0.964c-0.462-0.443-0.805-0.949-1.025-1.506
		L450.39,68.532h-5.068l-5.065,9.632l-16.627,42.47c-0.45,1.172-1.273,1.996-2.474,2.47l-3.854,1.467v2.556h18.219v-2.556
		l-7.12-1.969l6.073-15.791h18.555l6.281,15.96l-7.285,1.8v2.556h25.212v-2.556L473.383,123.104z M436.316,102.204l7.287-19.559
		l2.137,5.656l5.488,13.902H436.316z"/>
	<path fill="#27235D" d="M212.982,148.322c1.062-0.472,1.879-1.166,2.452-2.088c0.569-0.921,0.857-1.992,0.857-3.207
		c0-1.46-0.417-2.688-1.246-3.686c-0.83-0.998-1.907-1.646-3.232-1.953c-0.878-0.202-2.559-0.303-5.038-0.303h-4.448v22.326h2.231
		v-10.367h1.261l8.029,10.367h2.761l-8.029-10.367C210.454,149.035,211.919,148.794,212.982,148.322z M204.558,146.859v-7.588h3.937
		c1.53,0,2.626,0.132,3.284,0.395c0.658,0.264,1.19,0.701,1.598,1.313c0.404,0.612,0.606,1.291,0.606,2.041
		c0,0.769-0.199,1.464-0.6,2.085c-0.401,0.624-0.958,1.077-1.671,1.359c-0.716,0.284-1.818,0.425-3.309,0.425L204.558,146.859z"/>
	<path fill="#27235D" d="M235.139,145.675c-1.683-2.134-3.93-3.202-6.746-3.202c-2.733,0-4.916,1.044-6.547,3.129
		c-1.286,1.637-1.929,3.504-1.929,5.598c0,2.226,0.759,4.225,2.277,5.987c1.521,1.767,3.627,2.65,6.321,2.65
		c1.215,0,2.305-0.187,3.266-0.554c0.961-0.37,1.827-0.909,2.599-1.616c0.768-0.71,1.448-1.641,2.035-2.794l-1.791-0.94
		c-0.649,1.078-1.252,1.858-1.809,2.342s-1.233,0.872-2.029,1.166c-0.796,0.291-1.613,0.438-2.455,0.438
		c-1.742,0-3.205-0.611-4.389-1.839c-1.188-1.228-1.8-2.798-1.84-4.717h14.857C236.942,149.066,236.333,147.184,235.139,145.675z
		 M222.314,149.485c0.438-1.519,1.08-2.657,1.931-3.416c1.163-1.04,2.556-1.561,4.178-1.561c0.982,0,1.919,0.205,2.81,0.621
		c0.894,0.413,1.61,0.961,2.152,1.638c0.542,0.68,0.955,1.585,1.24,2.718H222.314z"/>
	<path fill="#27235D" d="M255.157,145.767c-0.991-1.173-2.023-2.018-3.092-2.525c-1.067-0.511-2.219-0.769-3.455-0.769
		c-1.487,0-2.905,0.386-4.245,1.154c-1.344,0.769-2.394,1.813-3.153,3.135c-0.759,1.318-1.139,2.745-1.139,4.272
		s0.364,2.93,1.093,4.202c0.729,1.277,1.764,2.29,3.101,3.043c1.335,0.756,2.765,1.133,4.282,1.133c1.298,0,2.522-0.272,3.676-0.814
		c1.157-0.539,2.134-1.316,2.933-2.329v0.851c0,1.821-0.211,3.138-0.637,3.955c-0.425,0.816-1.139,1.496-2.137,2.035
		c-0.997,0.539-2.219,0.808-3.67,0.808c-1.466,0-2.699-0.263-3.691-0.786c-0.991-0.526-1.803-1.338-2.43-2.431h-2.308
		c0.597,1.301,1.249,2.287,1.958,2.963c0.707,0.674,1.626,1.212,2.755,1.613c1.127,0.401,2.4,0.6,3.817,0.6
		c1.932,0,3.587-0.41,4.962-1.23c1.377-0.816,2.341-1.986,2.898-3.504c0.404-1.071,0.609-2.768,0.609-5.085v-13.158h-2.128V145.767z
		 M253.483,155.646c-1.191,1.176-2.762,1.761-4.714,1.761c-1.935,0-3.505-0.591-4.72-1.775c-1.216-1.185-1.821-2.682-1.821-4.493
		c0-1.194,0.294-2.302,0.878-3.331c0.588-1.025,1.399-1.83,2.431-2.411c1.031-0.582,2.148-0.873,3.354-0.873
		c1.151,0,2.229,0.282,3.232,0.849c1.001,0.565,1.775,1.337,2.32,2.313c0.548,0.977,0.82,2.088,0.82,3.333
		C255.265,152.929,254.671,154.475,253.483,155.646z"/>
	<rect x="261.518" y="142.898" fill="#27235D" width="2.124" height="16.514"/>
	<path fill="#27235D" d="M262.574,136.101c-0.475,0-0.882,0.171-1.225,0.514c-0.343,0.346-0.515,0.76-0.515,1.246
		c0,0.475,0.172,0.885,0.515,1.228c0.343,0.346,0.75,0.518,1.225,0.518c0.483,0,0.896-0.172,1.236-0.518
		c0.343-0.343,0.514-0.753,0.514-1.228c0-0.486-0.171-0.9-0.514-1.246C263.471,136.271,263.058,136.101,262.574,136.101z"/>
	<path fill="#27235D" d="M272.316,150.015c-1.298-0.667-2.151-1.248-2.556-1.744c-0.407-0.483-0.609-0.995-0.609-1.534
		c0-0.605,0.245-1.135,0.738-1.591c0.492-0.456,1.083-0.683,1.771-0.683c1.087,0,2.198,0.551,3.334,1.652l1.365-1.411
		c-1.54-1.487-3.07-2.231-4.592-2.231c-1.307,0-2.388,0.417-3.244,1.246c-0.857,0.829-1.286,1.87-1.286,3.125
		c0,0.961,0.27,1.818,0.809,2.565c0.535,0.75,1.552,1.509,3.042,2.277c1.387,0.707,2.28,1.294,2.676,1.76
		c0.395,0.475,0.594,1.017,0.594,1.625c0,0.738-0.3,1.381-0.897,1.926c-0.6,0.548-1.325,0.82-2.176,0.82
		c-1.219,0-2.369-0.612-3.453-1.837l-1.337,1.519c0.569,0.729,1.285,1.301,2.151,1.714c0.866,0.416,1.775,0.624,2.73,0.624
		c1.426,0,2.617-0.471,3.572-1.414c0.951-0.939,1.426-2.087,1.426-3.443c0-0.961-0.278-1.827-0.835-2.596
		C274.974,151.625,273.896,150.835,272.316,150.015z"/>
	<polygon fill="#27235D" points="284.101,136.768 281.977,136.768 281.977,142.898 279.078,142.898 279.078,144.735 
		281.977,144.735 281.977,159.412 284.101,159.412 284.101,144.735 287.471,144.735 287.471,142.898 284.101,142.898 	"/>
	<path fill="#27235D" d="M294.073,143.18c-0.72,0.469-1.402,1.182-2.051,2.131v-2.412h-2.17v16.514h2.17v-5.586
		c0-2.862,0.132-4.767,0.395-5.706c0.346-1.225,0.845-2.127,1.503-2.709c0.658-0.581,1.341-0.875,2.051-0.875
		c0.303,0,0.677,0.098,1.123,0.291l1.105-1.791c-0.667-0.376-1.295-0.563-1.879-0.563
		C295.539,142.473,294.789,142.709,294.073,143.18z"/>
	<path fill="#27235D" d="M307.822,142.473c-2.553,0-4.668,0.928-6.339,2.779c-1.521,1.678-2.28,3.661-2.28,5.947
		c0,2.309,0.802,4.325,2.409,6.049c1.606,1.727,3.676,2.589,6.21,2.589c2.525,0,4.589-0.862,6.195-2.589
		c1.607-1.724,2.412-3.74,2.412-6.049c0-2.295-0.762-4.285-2.28-5.962C312.475,143.395,310.366,142.473,307.822,142.473z
		 M313.405,154.585c-0.578,1.031-1.361,1.827-2.345,2.391c-0.985,0.56-2.065,0.842-3.244,0.842s-2.259-0.282-3.244-0.842
		c-0.986-0.563-1.767-1.359-2.345-2.391c-0.582-1.031-0.869-2.146-0.869-3.34c0-1.852,0.633-3.431,1.903-4.734
		c1.271-1.305,2.789-1.959,4.555-1.959c1.757,0,3.272,0.654,4.546,1.959c1.272,1.304,1.912,2.883,1.912,4.734
		C314.274,152.439,313.984,153.554,313.405,154.585z"/>
	<path fill="#27235D" d="M324.614,150.015c-1.298-0.667-2.148-1.248-2.553-1.744c-0.407-0.483-0.609-0.995-0.609-1.534
		c0-0.605,0.245-1.135,0.738-1.591c0.492-0.456,1.083-0.683,1.772-0.683c1.086,0,2.197,0.551,3.333,1.652l1.365-1.411
		c-1.54-1.487-3.07-2.231-4.592-2.231c-1.307,0-2.387,0.417-3.244,1.246s-1.286,1.87-1.286,3.125c0,0.961,0.27,1.818,0.806,2.565
		c0.538,0.75,1.552,1.509,3.042,2.277c1.39,0.707,2.284,1.294,2.679,1.76c0.395,0.475,0.594,1.017,0.594,1.625
		c0,0.738-0.3,1.381-0.9,1.926c-0.597,0.548-1.322,0.82-2.173,0.82c-1.218,0-2.369-0.612-3.452-1.837l-1.338,1.519
		c0.569,0.729,1.285,1.301,2.151,1.714c0.866,0.416,1.775,0.624,2.728,0.624c1.43,0,2.62-0.471,3.572-1.414
		c0.952-0.939,1.429-2.087,1.429-3.443c0-0.961-0.278-1.827-0.835-2.596C327.271,151.625,326.197,150.835,324.614,150.015z"/>
	<path fill="#27235D" d="M345.287,150.015c-1.297-0.667-2.151-1.248-2.556-1.744c-0.403-0.483-0.608-0.995-0.608-1.534
		c0-0.605,0.247-1.135,0.737-1.591c0.493-0.456,1.083-0.683,1.775-0.683c1.083,0,2.194,0.551,3.33,1.652l1.368-1.411
		c-1.543-1.487-3.073-2.231-4.591-2.231c-1.311,0-2.391,0.417-3.248,1.246s-1.282,1.87-1.282,3.125c0,0.961,0.266,1.818,0.805,2.565
		c0.536,0.75,1.552,1.509,3.043,2.277c1.386,0.707,2.28,1.294,2.675,1.76c0.395,0.475,0.594,1.017,0.594,1.625
		c0,0.738-0.3,1.381-0.896,1.926c-0.601,0.548-1.325,0.82-2.177,0.82c-1.218,0-2.369-0.612-3.452-1.837l-1.335,1.519
		c0.566,0.729,1.282,1.301,2.148,1.714c0.866,0.416,1.775,0.624,2.73,0.624c1.427,0,2.617-0.471,3.572-1.414
		c0.952-0.939,1.427-2.087,1.427-3.443c0-0.961-0.279-1.827-0.836-2.596C347.944,151.625,346.87,150.835,345.287,150.015z"/>
	<path fill="#27235D" d="M367.454,145.935c-0.829-1.153-1.794-2.02-2.893-2.596c-1.096-0.578-2.323-0.866-3.679-0.866
		c-2.348,0-4.355,0.845-6.027,2.535c-1.668,1.689-2.504,3.725-2.504,6.1c0,2.431,0.83,4.49,2.482,6.187
		c1.653,1.695,3.652,2.543,5.987,2.543c1.316,0,2.528-0.275,3.637-0.82c1.107-0.548,2.105-1.361,2.996-2.442v2.838h2.094v-16.514
		h-2.094V145.935z M366.75,154.618c-0.563,1.001-1.361,1.794-2.402,2.382c-1.041,0.585-2.143,0.878-3.306,0.878
		c-1.151,0-2.231-0.297-3.235-0.888c-1.007-0.59-1.81-1.417-2.403-2.479c-0.597-1.06-0.896-2.171-0.896-3.334
		c0-1.172,0.297-2.283,0.888-3.336c0.591-1.05,1.387-1.867,2.388-2.449c1.001-0.581,2.094-0.869,3.274-0.869
		c1.84,0,3.389,0.64,4.646,1.926c1.259,1.282,1.889,2.88,1.889,4.79C367.592,152.491,367.311,153.617,366.75,154.618z"/>
	<path fill="#27235D" d="M385.932,143.416c-0.955-0.628-2.051-0.943-3.288-0.943c-1.212,0-2.335,0.282-3.365,0.842
		c-1.031,0.563-1.975,1.411-2.825,2.544v-2.96h-2.124v16.514h2.124v-6.058c0-2.173,0.102-3.673,0.307-4.49
		c0.321-1.255,0.991-2.308,2.011-3.159c1.015-0.848,2.165-1.273,3.451-1.273c1.123,0,2.032,0.275,2.733,0.827
		c0.697,0.551,1.169,1.374,1.414,2.467c0.159,0.637,0.238,1.907,0.238,3.808v7.879h2.124v-8.5c0-2.247-0.229-3.899-0.683-4.962
		C387.594,144.888,386.886,144.043,385.932,143.416z"/>
	<path fill="#27235D" d="M394.021,136.101c-0.475,0-0.882,0.171-1.225,0.514c-0.343,0.346-0.515,0.76-0.515,1.246
		c0,0.475,0.172,0.885,0.515,1.228c0.343,0.346,0.75,0.518,1.225,0.518c0.483,0,0.896-0.172,1.239-0.518
		c0.34-0.343,0.511-0.753,0.511-1.228c0-0.486-0.171-0.9-0.511-1.246C394.918,136.271,394.505,136.101,394.021,136.101z"/>
	<rect x="392.965" y="142.898" fill="#27235D" width="2.124" height="16.514"/>
	<polygon fill="#27235D" points="403.482,136.768 401.358,136.768 401.358,142.898 398.459,142.898 398.459,144.735 
		401.358,144.735 401.358,159.412 403.482,159.412 403.482,144.735 406.853,144.735 406.853,142.898 403.482,142.898 	"/>
	<path fill="#27235D" d="M424.397,145.935c-0.83-1.153-1.794-2.02-2.893-2.596c-1.096-0.578-2.323-0.866-3.68-0.866
		c-2.348,0-4.355,0.845-6.026,2.535c-1.668,1.689-2.504,3.725-2.504,6.1c0,2.431,0.829,4.49,2.482,6.187
		c1.652,1.695,3.651,2.543,5.987,2.543c1.315,0,2.527-0.275,3.636-0.82c1.108-0.548,2.106-1.361,2.997-2.442v2.838h2.093v-16.514
		h-2.093V145.935z M423.693,154.618c-0.563,1.001-1.362,1.794-2.403,2.382c-1.04,0.585-2.143,0.878-3.306,0.878
		c-1.15,0-2.231-0.297-3.235-0.888c-1.007-0.59-1.809-1.417-2.402-2.479c-0.597-1.06-0.897-2.171-0.897-3.334
		c0-1.172,0.297-2.283,0.888-3.336c0.591-1.05,1.387-1.867,2.388-2.449c1.001-0.581,2.094-0.869,3.275-0.869
		c1.84,0,3.389,0.64,4.646,1.926c1.258,1.282,1.889,2.88,1.889,4.79C424.535,152.491,424.253,153.617,423.693,154.618z"/>
	<path fill="#27235D" d="M434.688,143.18c-0.719,0.469-1.401,1.182-2.048,2.131v-2.412h-2.173v16.514h2.173v-5.586
		c0-2.862,0.129-4.767,0.393-5.706c0.346-1.225,0.845-2.127,1.503-2.709c0.657-0.581,1.34-0.875,2.05-0.875
		c0.304,0,0.677,0.098,1.124,0.291l1.107-1.791c-0.67-0.376-1.298-0.563-1.882-0.563
		C436.154,142.473,435.407,142.709,434.688,143.18z"/>
	<path fill="#27235D" d="M441.357,136.101c-0.472,0-0.882,0.171-1.225,0.514c-0.343,0.346-0.511,0.76-0.511,1.246
		c0,0.475,0.168,0.885,0.511,1.228c0.343,0.346,0.753,0.518,1.225,0.518c0.483,0,0.896-0.172,1.239-0.518
		c0.343-0.343,0.515-0.753,0.515-1.228c0-0.486-0.172-0.9-0.515-1.246C442.254,136.271,441.841,136.101,441.357,136.101z"/>
	<rect x="440.305" y="142.898" fill="#27235D" width="2.124" height="16.514"/>
	<path fill="#27235D" d="M454.66,142.473c-2.553,0-4.668,0.928-6.34,2.779c-1.521,1.678-2.28,3.661-2.28,5.947
		c0,2.309,0.803,4.325,2.409,6.049c1.607,1.727,3.676,2.589,6.211,2.589c2.524,0,4.591-0.862,6.195-2.589
		c1.606-1.724,2.411-3.74,2.411-6.049c0-2.295-0.762-4.285-2.28-5.962C459.313,143.395,457.206,142.473,454.66,142.473z
		 M460.243,154.585c-0.579,1.031-1.359,1.827-2.345,2.391c-0.985,0.56-2.066,0.842-3.245,0.842c-1.178,0-2.259-0.282-3.244-0.842
		c-0.985-0.563-1.767-1.359-2.345-2.391s-0.869-2.146-0.869-3.34c0-1.852,0.634-3.431,1.904-4.734
		c1.27-1.305,2.788-1.959,4.554-1.959c1.757,0,3.272,0.654,4.546,1.959c1.276,1.304,1.913,2.883,1.913,4.734
		C461.112,152.439,460.821,153.554,460.243,154.585z"/>
	<path fill="#27235D" d="M471.452,150.015c-1.298-0.667-2.149-1.248-2.553-1.744c-0.407-0.483-0.609-0.995-0.609-1.534
		c0-0.605,0.245-1.135,0.737-1.591c0.493-0.456,1.084-0.683,1.772-0.683c1.087,0,2.197,0.551,3.333,1.652l1.365-1.411
		c-1.539-1.487-3.07-2.231-4.591-2.231c-1.308,0-2.391,0.417-3.245,1.246c-0.856,0.829-1.285,1.87-1.285,3.125
		c0,0.961,0.27,1.818,0.805,2.565c0.539,0.75,1.552,1.509,3.043,2.277c1.39,0.707,2.283,1.294,2.678,1.76
		c0.396,0.475,0.594,1.017,0.594,1.625c0,0.738-0.3,1.381-0.899,1.926c-0.597,0.548-1.322,0.82-2.174,0.82
		c-1.218,0-2.369-0.612-3.455-1.837l-1.335,1.519c0.566,0.729,1.286,1.301,2.152,1.714c0.866,0.416,1.775,0.624,2.727,0.624
		c1.43,0,2.62-0.471,3.572-1.414c0.952-0.939,1.43-2.087,1.43-3.443c0-0.961-0.278-1.827-0.836-2.596
		C474.108,151.625,473.034,150.835,471.452,150.015z"/>
</g>
</svg>
